<svg width="307" height="130" viewBox="0 0 307 130" fill="none" xmlns="http://www.w3.org/2000/svg">
<g filter="url(#filter0_d_715_2)">
<path d="M43.1369 31.3914C38.6277 42.8484 29.1209 67.1475 21.9438 85.4032C14.8042 103.617 8.71684 119.187 8.45381 119.942L7.92773 121.285L19.4261 121.201L30.9246 121.075L31.9391 118.347C33.4798 114.277 40.732 94.4261 45.2788 82.0458C47.4582 76.0445 49.9383 69.3297 50.7274 67.1475C54.3723 57.2852 61.5494 37.4766 61.7749 36.5953C61.9252 36.0917 62.1506 35.672 62.3009 35.672C62.4512 35.672 63.7664 39.0294 65.2695 43.1422C68.1629 51.1579 74.7387 69.1619 76.6176 74.2819C77.2564 76.0025 77.7824 77.5553 77.7824 77.7232C77.7824 77.933 70.9435 78.0589 62.564 78.0589C50.6522 78.0589 47.3455 78.1848 47.3455 78.5625C47.3455 78.8563 49.0364 83.1789 51.0656 88.1311L54.7856 97.154L69.8538 97.2799L84.922 97.3638L85.7862 99.5881C86.2747 100.763 88.2287 106.177 90.1827 111.507L93.7149 121.285H105.476H117.238L116.712 119.942C116.148 118.431 112.278 108.611 103.898 87.2917C100.854 79.5697 97.1343 70.1271 95.6313 66.3081C88.2287 47.4648 80.8637 28.6635 77.4818 20.1442L73.7618 10.7015L62.5264 10.6176L51.291 10.4917L43.1369 31.3914Z" fill="white"/>
<path d="M121.371 53.676V96.9022L123.475 102.274C126.406 109.702 129.037 116.459 130.051 119.103L130.878 121.327L155.904 121.159C175.857 120.991 181.569 120.866 184.124 120.362C200.094 117.214 208.812 108.863 210.427 95.0976C211.254 88.4249 209.939 81.1645 207.008 75.7088C204.528 71.1763 199.38 66.476 194.946 64.7134C193.931 64.3357 193.142 63.874 193.142 63.7062C193.142 63.5383 194.119 62.657 195.322 61.7337C202.724 56.1521 206.782 45.9121 205.58 35.9239C204.753 28.8314 202.273 23.6694 197.764 19.5147C194.72 16.7029 191.977 15.0662 187.468 13.3875C180.554 10.7855 180.629 10.8275 149.666 10.6176L121.371 10.4498V53.676ZM171.235 29.7966C176.496 30.5521 180.479 33.196 182.358 37.1409C182.997 38.4839 183.147 39.575 183.184 42.5966C183.184 47.1291 182.32 49.5632 179.878 51.7875C175.707 55.5226 173.79 55.9003 157.407 56.194L144.03 56.4458L147.675 65.2589L151.32 74.0721L163.119 74.3239C169.882 74.4917 175.857 74.8275 177.172 75.1212C184.8 76.8419 188.633 81.878 188.182 89.558C187.844 95.4334 185.176 98.8747 179.464 101.015L176.421 102.148L160 102.316L143.541 102.484V65.9304V29.377H156.054C162.893 29.377 169.732 29.5868 171.235 29.7966Z" fill="#FF0000"/>
<path d="M220.235 53.592V96.7343L224.669 108.905L229.065 121.075L262.396 121.201L295.726 121.285V111.213V101.141H269.235H242.743V65.8884V30.636H268.295H293.847V20.5638V10.4917H257.022H220.197L220.235 53.592Z" fill="white"/>
<path d="M243.119 55.4385C243.119 55.6903 244.773 60.2227 246.764 65.5106L250.447 75.1211H267.431H284.453L284.378 65.1329L284.265 55.1867L263.711 55.0608C248.568 55.0188 243.119 55.1027 243.119 55.4385Z" fill="white"/>
</g>
<defs>
<filter id="filter0_d_715_2" x="-4" y="0" width="315" height="136" filterUnits="userSpaceOnUse" color-interpolation-filters="sRGB">
<feFlood flood-opacity="0" result="BackgroundImageFix"/>
<feColorMatrix in="SourceAlpha" type="matrix" values="0 0 0 0 0 0 0 0 0 0 0 0 0 0 0 0 0 0 127 0" result="hardAlpha"/>
<feOffset dy="4"/>
<feGaussianBlur stdDeviation="2"/>
<feComposite in2="hardAlpha" operator="out"/>
<feColorMatrix type="matrix" values="0 0 0 0 0 0 0 0 0 0 0 0 0 0 0 0 0 0 0.25 0"/>
<feBlend mode="normal" in2="BackgroundImageFix" result="effect1_dropShadow_715_2"/>
<feBlend mode="normal" in="SourceGraphic" in2="effect1_dropShadow_715_2" result="shape"/>
</filter>
</defs>
</svg>
