<svg viewBox="0 0 210.17226948923076 210.17226948923076" height="210.17226948923076" width="210.17226948923076"><g transform="matrix(1,0,0,1,55.548055753548184,55.548055753548184)"><svg viewBox="0 0 99.07615798213439 99.07615798213439" height="99.07615798213439" width="99.07615798213439"><g><svg xmlns="http://www.w3.org/2000/svg" xmlns:xlink="http://www.w3.org/1999/xlink" version="1.1" x="0" y="0" viewBox="1 1 126 126" style="enable-background:new 0 0 128 128;" xml:space="preserve" height="99.07615798213439" width="99.07615798213439" class="icon-s-0" data-fill-palette-color="accent" id="s-0"><g fill="#99592a" data-fill-palette-color="accent"><path d="M110.937 52.703c-7.691-4.44-16.653-5.62-25.231-3.321-8.267 2.215-15.218 7.411-19.687 14.668 9.403 17.409 3.288 39.323-13.954 49.278-5.771 3.331-12.084 4.915-18.313 4.915-0.632 0-1.264-0.028-1.894-0.062C41.271 123.777 52.257 127 64 127c31.814 0 58.104-23.586 62.378-54.223C124.154 64.602 118.837 57.265 110.937 52.703z" fill="#99592a" data-fill-palette-color="accent"></path><path d="M64 1c-8.339 0-16.291 1.635-23.575 4.577C34.448 11.591 30.749 19.872 30.749 29c0 18.01 14.396 32.711 32.285 33.226 4.938-8.026 12.624-13.774 21.766-16.224 9.482-2.54 19.386-1.237 27.887 3.671 6.348 3.666 11.181 8.957 14.295 15.043C126.983 64.476 127 64.24 127 64 127 29.206 98.795 1 64 1z" fill="#99592a" data-fill-palette-color="accent"></path><path d="M50.314 110.297c15.598-9.006 21.13-28.825 12.632-44.574C43.168 65.162 27.249 48.91 27.249 29c0-7.337 2.17-14.175 5.891-19.918C13.961 19.882 1 40.421 1 64c0 20.167 9.486 38.105 24.228 49.636C33.414 115.793 42.419 114.854 50.314 110.297z" fill="#99592a" data-fill-palette-color="accent"></path></g></svg></g></svg></g><g><path d="M5.087 69.171v0l1.413 0.857-0.821 1.204c-0.534 0.87-0.912 1.647-1.133 2.332v0c-0.581 1.793-0.073 2.948 1.523 3.465v0c0.697 0.226 1.359 0.139 1.985-0.26 0.628-0.405 1.203-0.958 1.724-1.657 0.519-0.693 1.06-1.382 1.625-2.068 0.571-0.683 1.268-1.192 2.092-1.527 0.825-0.342 1.731-0.353 2.72-0.033v0c1.508 0.489 2.532 1.335 3.073 2.54 0.543 1.198 0.538 2.649-0.014 4.353v0c-0.277 0.855-0.679 1.674-1.205 2.456-0.531 0.773-1.053 1.381-1.568 1.823v0l-1.117-0.992c1.089-1.18 1.834-2.388 2.235-3.623 0.402-1.242 0.458-2.267 0.167-3.076-0.291-0.808-0.918-1.369-1.882-1.68v0c-0.969-0.314-1.899-0.038-2.789 0.829v0c-0.395 0.397-0.792 0.846-1.192 1.346-0.394 0.502-0.81 0.998-1.248 1.486-0.438 0.488-0.891 0.912-1.357 1.272-0.475 0.364-1.032 0.604-1.672 0.719-0.648 0.119-1.336 0.061-2.064-0.176v0c-1.305-0.423-2.183-1.138-2.634-2.145-0.442-1.011-0.449-2.179-0.02-3.503 0.429-1.324 1.149-2.638 2.159-3.942z" fill="#99592a" data-fill-palette-color="accent"></path><path d="M24.821 35.46l13.394 10.131-1.085 1.434-10.987-8.311 4.205 9.957-0.39 0.482-10.686-1.306 10.964 8.293-1.067 1.41-13.394-10.131 1.212-1.601 10.676 1.186-3.927-10.11z" fill="#99592a" data-fill-palette-color="accent"></path><path d="M47.823 16.427l13.802 11.073-1.694 1.096-4.291-3.543-5.058 3.273 1.489 5.354-1.594 1.031-4.483-17.101zM50.113 26.773l4.337-2.806-6.562-5.416z" fill="#99592a" data-fill-palette-color="accent"></path><path d="M79.999 9.4l8.49 8.469-2.177 0.596-7.167-7.568-1.48 2.766 1.824 6.669-1.734 0.474-4.427-16.179 1.706-0.467 1.996 7.295 4.763-9.165 2.13-0.582z" fill="#99592a" data-fill-palette-color="accent"></path><path d="M111.48 17.137v0c-2.187-0.134-3.789-1.046-4.806-2.737-1.024-1.691-1.459-3.789-1.306-6.295 0.154-2.506 0.844-4.516 2.071-6.029 1.22-1.507 2.92-2.193 5.1-2.06 2.18 0.134 3.787 1.023 4.821 2.668 1.04 1.652 1.483 3.731 1.33 6.237v0c-0.211 3.437-1.336 5.853-3.377 7.25v0c-1.086 0.734-2.363 1.056-3.833 0.966zM112.484 1.574v0c-1.629-0.1-2.89 0.504-3.784 1.81-0.887 1.307-1.391 2.944-1.512 4.912-0.12 1.961 0.191 3.638 0.933 5.032 0.736 1.386 1.905 2.129 3.506 2.226 1.595 0.098 2.84-0.507 3.735-1.813 0.901-1.306 1.414-2.989 1.54-5.05v0c0.158-2.586-0.451-4.562-1.828-5.927v0c-0.709-0.731-1.572-1.127-2.59-1.19z" fill="#99592a" data-fill-palette-color="accent"></path><path d="M144.738 23.91l-0.57 1.451-8.368-3.288 6.141-15.631 1.673 0.658-5.571 14.18z" fill="#99592a" data-fill-palette-color="accent"></path><path d="M170.54 22.127l-9.879 13.58-1.454-1.057 9.878-13.581z" fill="#99592a" data-fill-palette-color="accent"></path><path d="M185.926 47.131l-4.629 11.063-1.375-1.79 4.295-9.497-3.121-0.324-5.483 4.211-1.095-1.426 13.303-10.217 1.077 1.402-5.998 4.607 10.286 0.943 1.345 1.751z" fill="#99592a" data-fill-palette-color="accent"></path><path d="M207.759 76.784l0.632 1.842-10.524-2.229-7.154 2.454-0.583-1.701 7.153-2.454 7.01-8.014 0.648 1.89-5.974 6.539z" fill="#99592a" data-fill-palette-color="accent"></path><path d="M24.651 139.623v0l-1.669 0.133-0.045-1.467c-0.076-1.033-0.228-1.897-0.454-2.594v0c-0.59-1.818-1.697-2.464-3.319-1.937v0c-0.709 0.23-1.203 0.695-1.479 1.395-0.275 0.706-0.416 1.501-0.423 2.385-0.015 0.88-0.053 1.768-0.112 2.662-0.057 0.901-0.322 1.736-0.794 2.506-0.48 0.765-1.22 1.31-2.221 1.635v0c-1.527 0.496-2.87 0.414-4.029-0.246-1.168-0.664-2.033-1.861-2.594-3.59v0c-0.28-0.861-0.432-1.771-0.456-2.73-0.028-0.95 0.035-1.758 0.189-2.425v0l1.509 0.151c-0.189 1.616-0.08 3.051 0.327 4.305 0.409 1.261 0.973 2.135 1.692 2.623 0.727 0.492 1.575 0.581 2.544 0.266v0c0.988-0.321 1.588-1.104 1.8-2.349v0c0.091-0.562 0.15-1.166 0.178-1.812 0.026-0.653 0.072-1.308 0.139-1.968 0.066-0.659 0.184-1.278 0.352-1.858 0.177-0.576 0.493-1.102 0.948-1.578 0.459-0.485 1.059-0.848 1.799-1.089v0c1.324-0.43 2.47-0.361 3.439 0.207 0.967 0.561 1.668 1.514 2.104 2.856 0.436 1.343 0.628 2.849 0.575 4.519z" fill="#99592a" data-fill-palette-color="accent"></path><path d="M42.277 166.567l-13.576 10.288-1.104-1.457 11.131-8.435-10.871 1.369-0.356-0.52 4.218-10.065-11.115 8.423-1.093-1.441 13.576-10.288 1.237 1.632-4.102 10.103 10.951-1.066z" fill="#99592a" data-fill-palette-color="accent"></path><path d="M59.73 180.38l-4.493 17.373-1.721-1.111 1.487-5.437-5.137-3.315-4.325 3.606-1.611-1.04 13.937-11.279zM51.114 186.804l4.398 2.839 2.268-8.322z" fill="#99592a" data-fill-palette-color="accent"></path><path d="M82.446 197.057l3.044 11.775-2.207-0.601-2.358-10.304-2.73 1.658-1.842 6.756-1.754-0.478 4.475-16.414 1.735 0.473-2.018 7.402 8.876-5.553 2.159 0.589z" fill="#99592a" data-fill-palette-color="accent"></path><path d="M112.339 210.156v0c-2.22 0.138-3.946-0.579-5.178-2.151-1.239-1.571-1.937-3.63-2.095-6.176-0.158-2.539 0.285-4.645 1.329-6.319 1.037-1.673 2.663-2.578 4.876-2.715 2.207-0.137 3.935 0.56 5.185 2.091 1.249 1.531 1.953 3.566 2.111 6.105v0c0.216 3.483-0.615 6.054-2.494 7.712v0c-1 0.876-2.244 1.361-3.734 1.453zM111.409 194.368v0c-1.655 0.103-2.849 0.868-3.581 2.295-0.732 1.427-1.036 3.137-0.913 5.131 0.123 1.988 0.646 3.637 1.569 4.948 0.915 1.304 2.184 1.906 3.805 1.805 1.615-0.1 2.792-0.864 3.532-2.291 0.745-1.428 1.053-3.185 0.923-5.272v0c-0.163-2.619-1.022-4.531-2.578-5.736v0c-0.808-0.651-1.727-0.944-2.757-0.88z" fill="#99592a" data-fill-palette-color="accent"></path><path d="M148.166 199.355l0.579 1.469-8.488 3.341-6.239-15.85 1.692-0.666 5.661 14.381z" fill="#99592a" data-fill-palette-color="accent"></path><path d="M157.768 175.289l10.014 13.779-1.471 1.069-10.014-13.779z" fill="#99592a" data-fill-palette-color="accent"></path><path d="M178.86 162.496l12.049 1.658-1.395 1.813-10.427-1.734 0.496 3.156 5.55 4.271-1.109 1.441-13.483-10.376 1.097-1.425 6.08 4.679-1.764-10.321 1.364-1.773z" fill="#99592a" data-fill-palette-color="accent"></path><path d="M187.209 131.163l0.64-1.861 7.04 8.341 7.245 2.494-0.595 1.729-7.246-2.495-10.61 2.032 0.657-1.908 8.855-1.506z" fill="#99592a" data-fill-palette-color="accent"></path><path d="M1.781 107.491c0-3.594 2.913-6.507 6.507-6.506 3.594 0 6.507 2.913 6.507 6.506 0 3.594-2.913 6.507-6.507 6.507-3.594 0-6.507-2.913-6.507-6.507z" fill="#99592a" data-fill-palette-color="accent"></path><path d="M194.953 107.491c0-3.594 2.913-6.507 6.507-6.506 3.594 0 6.507 2.913 6.507 6.506 0 3.594-2.913 6.507-6.507 6.507-3.594 0-6.507-2.913-6.507-6.507z" fill="#99592a" data-fill-palette-color="accent"></path></g></svg>