<svg width="490" height="45" viewBox="0 0 490 45" fill="none" xmlns="http://www.w3.org/2000/svg">
<mask id="mask0_827_1482" style="mask-type:luminance" maskUnits="userSpaceOnUse" x="0" y="0" width="489" height="45">
<path d="M488.551 0H0V44.655H488.551V0Z" fill="white"/>
</mask>
<g mask="url(#mask0_827_1482)">
<path d="M488.552 9.05995V0.959961H465.665H457.688V34.1399L462.856 43.1099H465.665H488.552V35.0099H467.248V26.0849H486.102V17.9849H467.248V9.05995H488.552Z" fill="white"/>
<path d="M440.491 33.5099V0.959961H430.93V34.1399L436.084 43.1099H438.638H440.491H459.702L454.19 33.5099H440.491Z" fill="white"/>
<path d="M426.987 0.959961H417.426V43.1249H426.987V0.959961Z" fill="white"/>
<path d="M403.922 0.959961L389.73 29.0399L375.553 0.959961H365.992V43.1099H375.553V20.5949L386.922 43.1099H392.539L403.922 20.5799V43.1099H413.483V0.959961H403.922Z" fill="white"/>
<path d="M343.044 9.05995V0.959961H320.157H312.18V34.1399L317.349 43.1099H320.157H343.044V35.0099H321.741V26.0849H340.594V17.9849H321.741V9.05995H343.044Z" fill="white"/>
<path d="M294.971 33.5099V0.959961H285.41V34.1399L290.579 43.1099H293.134H294.971H314.198L308.685 33.5099H294.971Z" fill="white"/>
<path d="M216.617 43.1099L202.56 0.959961H197.107H192.999H187.546L173.488 43.1099H183.049L195.045 7.10995L201.17 25.4549H188.95V25.4699L193.611 33.5699H203.874L207.056 43.1099H216.617Z" fill="white"/>
<path d="M170.035 21.255C171.481 19.4007 172.379 17.1754 172.624 14.8335C172.87 12.4915 172.456 10.1272 171.427 8.01056C170.399 5.89394 168.799 4.11039 166.809 2.86365C164.819 1.61689 162.52 0.957223 160.175 0.959969H139.484V34.14L144.653 43.14H161.639C164.167 43.147 166.638 42.3834 168.725 40.9501C170.812 39.5169 172.416 37.4814 173.326 35.1129C174.236 32.7444 174.409 30.1545 173.82 27.6853C173.233 25.2163 171.913 22.9845 170.035 21.285V21.255ZM160.175 8.99997C161.364 8.99997 162.504 9.47408 163.343 10.318C164.185 11.1619 164.657 12.3065 164.657 13.5C164.657 14.6934 164.185 15.838 163.343 16.6819C162.504 17.5258 161.364 18 160.175 18H149.045V8.99997H160.175ZM161.669 34.95H149.045V26.085H161.639C162.719 26.2258 163.709 26.7564 164.428 27.5775C165.147 28.3987 165.543 29.4544 165.543 30.5475C165.543 31.6405 165.147 32.6962 164.428 33.5175C163.709 34.3386 162.719 34.8691 161.639 35.01L161.669 34.95Z" fill="white"/>
<path d="M283.618 0.929688H205.367L207.772 10.0197H220.56V43.1097H270.427V10.0197H283.618V0.929688Z" fill="#D03027"/>
<path d="M251.813 42.2246C251.559 42.0766 251.271 41.9989 250.976 41.9996C250.044 41.6737 249.148 41.2514 248.302 40.7396C248.174 40.6783 248.063 40.5859 247.98 40.4705C247.896 40.3553 247.842 40.2209 247.824 40.0796C247.552 38.3033 247.437 36.5063 247.481 34.7096C247.481 33.5246 247.481 32.8796 247.481 31.4696C247.481 31.1546 247.481 29.9696 247.481 29.4596C247.455 28.7806 247.355 28.1063 247.182 27.4496L246.973 26.5196C246.569 24.1123 245.979 21.7402 245.21 19.4246C245.418 18.3016 245.749 17.2051 246.196 16.1546C246.525 16.0496 246.719 16.3796 247.062 16.4696C247.809 16.6796 248.556 16.8896 249.288 17.1296C250.02 17.3696 250.618 17.1296 250.618 16.1996C250.618 15.8696 250.618 15.7946 250.857 15.8546C250.364 14.7746 250.05 14.1146 250.155 14.3546C248.937 14.6726 247.673 14.7741 246.42 14.6546C246.424 14.5997 246.424 14.5445 246.42 14.4896C246.42 14.4896 246.42 14.3846 246.42 14.3246C246.767 13.0737 246.817 11.7588 246.569 10.4846C246.251 9.52207 246.088 8.51401 246.091 7.4996C246.266 7.59041 246.462 7.63676 246.659 7.6346C247.227 7.6346 247.421 7.1396 247.585 6.6896C247.885 5.94404 248.008 5.1389 247.947 4.33733C247.884 3.53576 247.637 2.75957 247.227 2.0696C247.044 1.60247 246.719 1.20555 246.297 0.93599C245.876 0.666427 245.38 0.538141 244.881 0.569608C244.308 0.549469 243.747 0.743957 243.308 1.11535C242.869 1.48674 242.584 2.00857 242.506 2.5796C242.506 3.1196 242.088 3.4046 241.654 3.1646C240.504 2.5046 239.414 3.5996 238.398 2.7296C238.339 2.89975 238.339 3.08446 238.398 3.2546C237.696 3.34951 237.041 3.66683 236.53 4.1605C236.021 4.65415 235.68 5.2984 235.559 5.9996C235.97 5.50012 236.53 5.14754 237.158 4.9946C236.586 5.47054 236.157 6.09812 235.922 6.80608C235.688 7.51405 235.655 8.27399 235.828 8.9996C235.963 8.8796 236.411 7.7396 239.518 7.6046C239.388 7.70779 239.267 7.82332 239.16 7.9496L239.593 7.8596C239.745 7.83367 239.896 7.7935 240.041 7.7396C240.567 7.56077 241.042 7.25957 241.429 6.86066C241.816 6.46175 242.103 5.97649 242.267 5.4446C242.398 5.03765 242.464 4.61231 242.461 4.1846L242.64 4.0496C242.654 4.39714 242.734 4.73869 242.879 5.0546C243.092 5.44594 243.332 5.82187 243.596 6.1796C243.596 6.55534 243.471 6.92011 243.238 7.2146C242.905 7.5778 242.489 7.85555 242.028 8.0246L240.893 8.5196C240.249 8.79017 239.629 9.11641 239.04 9.4946C238.489 9.86098 238.015 10.3355 237.651 10.8896C237.471 11.1896 237.292 11.4896 237.651 11.7746C238.505 12.7127 239.517 13.4944 240.639 14.0846C240.685 15.4055 240.446 16.7207 239.936 17.9396C239.685 18.1441 239.403 18.3061 239.1 18.4196C238.794 18.5633 238.519 18.7675 238.293 19.0196C237.976 19.4072 237.757 19.8649 237.651 20.3546C237.546 20.8346 237.651 21.3746 237.486 21.8546C237.412 22.0646 237.322 22.2446 237.232 22.4396L236.725 23.4146C236.326 24.2213 236.004 25.0654 235.768 25.9346C235.44 27.1196 234.768 27.3296 233.737 26.8046L232.542 26.0846C230.794 25.1546 227.851 25.1996 227.716 24.8846C227.417 23.9246 226.805 23.6546 225.924 24.1196C225.416 24.4046 225.221 24.7946 224.43 25.2446C223.559 25.4305 222.777 25.9126 222.219 26.6096C221.741 27.2546 222.054 27.5096 222.219 27.6446C222.383 27.7796 222.891 27.7796 223.384 27.5246C224.001 27.2671 224.658 27.1199 225.326 27.0896C225.61 27.0896 225.819 27.0896 225.909 27.0896C226.397 26.9747 226.905 26.9729 227.395 27.0847C227.884 27.1966 228.341 27.4187 228.732 27.7346C230.637 28.8536 232.637 29.8022 234.708 30.5696C235.087 30.79 235.535 30.8552 235.961 30.7519C236.387 30.6485 236.756 30.3845 236.993 30.0146C238.353 28.3946 240.101 27.5096 241.102 25.6046C241.415 24.9746 241.415 25.0946 241.759 25.7246C242.304 26.768 242.923 27.7706 243.611 28.7246C243.72 28.9279 243.782 29.1538 243.791 29.3846C243.791 29.8796 243.791 30.5096 243.791 30.9896C243.762 32.2862 244.006 33.5744 244.508 34.7696C245.026 35.9752 245.416 37.232 245.673 38.5196C245.772 39.0694 245.827 39.6262 245.837 40.1846C245.833 40.4708 245.782 40.7545 245.688 41.0246C245.564 41.2874 245.424 41.5429 245.27 41.7896C245.189 41.9287 245.147 42.0865 245.147 42.2471C245.147 42.4078 245.189 42.5656 245.27 42.7046L245.464 42.9296C245.643 43.1396 246.48 43.1996 247.047 43.2296C247.745 43.2169 248.441 43.313 249.109 43.5146C249.592 43.6748 250.107 43.7006 250.603 43.5896C250.867 43.5344 251.12 43.4329 251.35 43.2896C251.471 43.2268 251.578 43.1398 251.667 43.0342C251.753 42.9284 251.819 42.8062 251.858 42.6746C251.894 42.6031 251.909 42.5228 251.901 42.443C251.894 42.3634 251.862 42.2875 251.813 42.2246Z" fill="white"/>
<path d="M259.191 26.3998L258.444 25.4998C257.469 24.261 256.248 23.2393 254.859 22.4998C254.07 22.1769 253.331 21.7425 252.663 21.2098C251.976 20.5648 252.334 19.7098 252.663 18.9898C252.799 18.5982 252.963 18.2172 253.156 17.8498C253.261 17.6698 253.276 17.4448 253.574 17.5048C253.891 17.5053 254.206 17.4441 254.501 17.3248C255.782 16.6395 256.939 15.7419 257.922 14.6698C258.201 14.4395 258.513 14.2525 258.848 14.1148C259.187 13.9712 259.486 13.7443 259.714 13.4548C259.882 13.2507 259.982 12.9988 259.998 12.7348C259.998 12.3148 259.998 11.0098 259.475 10.9198C259.407 10.912 259.338 10.9201 259.272 10.9435C259.208 10.9669 259.15 11.005 259.102 11.0548C258.825 11.2378 258.561 11.4382 258.31 11.6548C258.31 11.6548 258.19 11.6548 258.161 11.6548C258.235 11.4448 258.654 10.8898 258.415 10.6798C258.386 10.6611 258.352 10.6511 258.317 10.6511C258.283 10.6511 258.249 10.6611 258.22 10.6798C258.155 10.7162 258.095 10.7617 258.041 10.8148C257.582 11.1944 257.275 11.7267 257.175 12.3148C257.152 12.5091 257.152 12.7055 257.175 12.8998C257.2 13.0109 257.191 13.1268 257.152 13.2334C257.112 13.3399 257.042 13.4325 256.951 13.4998C255.935 14.0848 255.935 14.0848 255.337 14.4748C255.158 14.5798 254.889 14.7748 254.769 14.7298C254.65 14.6848 254.769 14.3098 254.769 14.1148C255.149 12.5402 254.959 10.8813 254.232 9.43482C254.099 9.18237 254.023 8.9035 254.011 8.61822C253.997 8.33295 254.048 8.04834 254.157 7.78482C254.275 7.52392 254.475 7.30828 254.725 7.16982C255.068 6.97482 255.427 7.01982 255.77 6.85482C256.089 6.69844 256.335 6.42433 256.458 6.08982C256.743 4.96272 256.743 3.78192 256.458 2.65482C256.302 1.98355 255.953 1.37336 255.454 0.900957C254.953 0.428559 254.326 0.115041 253.649 -0.000182733C253.326 -0.079406 252.992 -0.092124 252.665 -0.0375662C252.337 0.0169915 252.025 0.137689 251.746 0.317211C251.466 0.496734 251.226 0.731343 251.039 1.00682C250.854 1.2823 250.724 1.59291 250.661 1.91982C250.47 2.72157 250.582 3.56605 250.975 4.28982C251.558 5.36982 251.573 6.08982 250.811 6.58482C250.077 6.94177 249.385 7.37946 248.749 7.88982C247.793 8.42982 244.611 9.19482 244.267 10.8898C243.924 12.5848 246.135 15.3898 246.643 15.7798C247.151 16.1698 247.808 17.4148 246.239 18.3448C245.643 18.6327 245.137 19.0807 244.778 19.6393C244.42 20.1979 244.223 20.8453 244.208 21.5098C244.255 22.8012 243.8 24.0603 242.938 25.0198C241.907 25.9348 240.727 29.5948 239.278 30.3598C237.988 30.7327 236.853 31.5108 236.036 32.5798C235.812 32.9398 235.498 33.5998 235.229 34.0798C234.817 34.8771 234.266 35.5935 233.601 36.1948C233.187 36.5628 232.742 36.894 232.271 37.1848C231.793 37.3978 231.291 37.5538 230.777 37.6498C230.622 37.6611 230.47 37.7037 230.331 37.7751C230.19 37.8465 230.068 37.9453 229.968 38.0658C229.866 38.1861 229.791 38.3256 229.747 38.4757C229.7 38.6259 229.685 38.7837 229.702 38.9398C229.951 39.8331 230.15 40.7394 230.299 41.6548C230.331 42.2263 230.495 42.7824 230.78 43.2777C231.066 43.773 231.465 44.1934 231.943 44.5048C232.065 44.5926 232.207 44.647 232.356 44.6628C232.506 44.6785 232.657 44.6551 232.794 44.5948C232.944 44.5048 232.929 44.3848 232.794 44.2348C232.528 43.5994 232.419 42.9087 232.476 42.2218C232.534 41.5348 232.755 40.8721 233.123 40.2898C233.227 40.1098 233.123 40.4548 233.123 40.2898C233.123 40.1248 233.123 40.0198 233.198 39.9748C233.287 39.5698 233.72 38.6248 235.453 37.3198C236.787 36.3922 238.069 35.3907 239.293 34.3198C239.866 33.7996 240.486 33.3327 241.145 32.9248C243.148 31.6353 245.002 30.126 246.673 28.4248C247.24 27.7048 247.793 26.9248 248.331 26.2498C248.438 26.0805 248.606 25.9575 248.798 25.9048C248.993 25.8522 249.199 25.8735 249.376 25.9648C251.169 26.7148 252.947 27.4648 254.874 28.2148C253.455 28.7248 252.394 30.6298 251.752 31.6948C251.078 33.18 249.911 34.3837 248.45 35.0998C248.407 35.1264 248.359 35.1405 248.308 35.1405C248.258 35.1405 248.21 35.1264 248.166 35.0998C247.815 35.0232 247.448 35.0764 247.131 35.2501C246.816 35.4237 246.574 35.706 246.448 36.0448C246.269 36.7048 246.792 37.0348 247.091 37.5448C247.554 38.3548 247.33 38.8498 247.644 39.9748C247.883 40.8298 248.555 42.9748 249.795 42.5998C250.437 42.4498 249.914 40.9798 249.795 40.5598C249.616 39.8248 250.243 38.4598 250.198 37.7848C251.003 36.0307 252.379 34.6029 254.097 33.7348C254.913 33.2433 255.693 32.6917 256.428 32.0848C257.715 31.2559 258.824 30.1743 259.684 28.9048C259.84 28.4823 259.877 28.0246 259.789 27.5826C259.702 27.1405 259.496 26.7312 259.191 26.3998Z" fill="white"/>
<path d="M250.469 6.71973C246.689 9.83973 241.416 9.61473 246.555 15.2097C246.903 15.4899 247.169 15.8598 247.324 16.2798C247.479 16.6998 247.518 17.1543 247.436 17.5947C247.167 18.4797 246.301 18.8097 245.718 19.2897C244.448 20.2047 244.643 21.4347 244.329 22.9197C243.809 24.3146 243.023 25.5936 242.013 26.6847C241.132 27.8697 240.893 29.4447 239.608 30.3747C238.186 30.6882 236.916 31.4826 236.008 32.6247C236.75 31.3911 237.904 30.4613 239.265 29.9997C240.609 28.6497 240.953 26.0397 242.566 24.5097C244.06 22.7247 242.969 20.0097 245.076 18.5097C248.915 17.0097 243.806 15.1347 243.582 11.8947C243.537 11.477 243.6 11.0546 243.764 10.6684C243.93 10.2821 244.19 9.94509 244.523 9.68973C245.753 8.87464 247.09 8.23833 248.497 7.79973C249.084 7.374 249.722 7.02142 250.394 6.74973L250.469 6.71973Z" fill="#D03027"/>
<path d="M248.495 26.3101C247.288 28.7743 245.302 30.7681 242.848 31.9801C244.93 30.3019 246.823 28.4006 248.495 26.3101Z" fill="#D03027"/>
<path d="M249.721 34.4097C249.541 34.5297 248.765 35.0997 248.615 35.1897C248.466 35.2797 248.048 35.1147 247.794 35.1897C247.49 35.2191 247.209 35.359 247.003 35.583C246.797 35.8071 246.679 36.0994 246.673 36.4047C246.823 36.9747 247.584 37.5597 247.629 38.2647C247.641 39.6864 248.057 41.0754 248.824 42.2697C248.926 42.4033 249.057 42.511 249.207 42.5839C249.358 42.657 249.524 42.6933 249.691 42.6897C250.498 42.6897 249.96 41.5047 249.84 41.0247C249.392 39.9897 250.124 38.7897 250.184 37.8297C250.465 37.3326 250.795 36.8652 251.17 36.4347C250.967 36.9514 250.728 37.4527 250.453 37.9347C250.453 39.0897 249.825 39.9747 250.154 41.0547C250.273 41.6547 250.632 42.9597 249.676 42.9897C247.898 42.7197 247.42 39.9897 247.181 38.4897C247.047 37.6947 246.374 37.4097 246.21 36.5697C246.185 36.3063 246.229 36.0411 246.34 35.8008C246.451 35.5605 246.622 35.3538 246.837 35.2014C247.053 35.0491 247.304 34.9567 247.567 34.9336C247.829 34.9104 248.092 34.9573 248.331 35.0697C248.331 35.1447 248.555 35.0697 248.72 34.9347L249.676 34.4697L249.721 34.4097Z" fill="#D03027"/>
<path d="M255.098 12.585C255.131 13.7666 254.931 14.943 254.511 16.0471C254.09 17.1512 253.458 18.1615 252.648 19.0199C253.76 16.9997 254.583 14.8339 255.098 12.585Z" fill="#D12F28"/>
<path d="M63.0411 10.4998C64.8184 10.5027 66.5709 10.9202 68.1601 11.7194C69.7494 12.5185 71.1318 13.6775 72.1988 15.1049L81.7747 12.5248C79.6475 8.2924 76.161 4.90375 71.8791 2.90646C67.5969 0.909145 62.7692 0.419856 58.1759 1.51765C53.5826 2.61544 49.4922 5.23618 46.5656 8.95641C43.6389 12.6766 42.0469 17.279 42.0469 22.0199C42.0469 26.7606 43.6389 31.3631 46.5656 35.0832C49.4922 38.8035 53.5826 41.4243 58.1759 42.522C62.7692 43.6199 67.5969 43.1306 71.8791 41.1332C76.161 39.1359 79.6475 35.7473 81.7747 31.5149L72.1988 28.9499C71.0217 30.5108 69.4673 31.7442 67.6828 32.5335C65.8984 33.3228 63.9427 33.6419 62.0012 33.4602C60.0596 33.2787 58.1963 32.6027 56.5876 31.496C54.979 30.3894 53.6782 28.889 52.8085 27.1367C51.9387 25.3842 51.5287 23.438 51.6173 21.4821C51.7059 19.5263 52.2901 17.6255 53.3148 15.9596C54.3393 14.2937 55.7705 12.918 57.4725 11.9626C59.1745 11.0072 61.0911 10.5037 63.0411 10.4998Z" fill="white"/>
<path d="M23.6186 0.959961H19.5104H14.0576L0 43.1099H9.56098L21.557 7.10995L27.682 25.4699H15.4619L20.1229 33.5699H30.386L33.568 43.1099H43.129L29.0713 0.959961H23.6186Z" fill="white"/>
<path d="M116.571 9.05995V0.959961H93.6845H85.707V34.1399L90.8759 43.1249H93.6845H116.571V35.0099H95.268V26.0849H114.121V17.9849H95.268V9.05995H116.571Z" fill="white"/>
</g>
</svg>
