<svg width="50" height="28" viewBox="0 0 50 28" fill="none" xmlns="http://www.w3.org/2000/svg">
<rect width="50" height="28" fill="#FACC15"/>
<path d="M22.4231 7.50018C23.6339 7.50018 24.6154 6.49279 24.6154 5.25009C24.6154 4.00738 23.6339 3 22.4231 3C21.2123 3 20.2308 4.00738 20.2308 5.25009C20.2308 6.49279 21.2123 7.50018 22.4231 7.50018ZM15.1926 17.882L14.5166 19.5002H11.4615C10.6545 19.5002 10 20.1719 10 21.0002C10 21.8285 10.6545 22.5003 11.4615 22.5003H14.9989C15.8781 22.5003 16.6696 21.964 17.0136 21.1366L17.415 20.1747L16.9277 19.8794C16.1366 19.3999 15.5548 18.6901 15.1926 17.882ZM27.5385 13.4999H25.5275L24.3372 11.0038C23.7663 9.80605 22.7181 8.93039 21.5156 8.61584L18.2691 7.62487C16.9766 7.30611 15.6306 7.59909 14.5769 8.42834L12.765 9.85386C12.1243 10.3578 12.0028 11.2991 12.4947 11.9568C12.9866 12.6144 13.9032 12.7377 14.5436 12.2343L16.3563 10.8087C16.7066 10.5326 17.1529 10.4337 17.5105 10.5209L18.1819 10.7258L16.471 14.8223C15.8946 16.2043 16.4111 17.8229 17.6722 18.587L21.5535 20.9388L20.2988 25.0513C20.0577 25.8417 20.4865 26.6831 21.2566 26.9306C21.4023 26.9775 21.5494 27 21.6941 27C22.3157 27 22.8921 26.5889 23.0881 25.9476L24.5332 21.2102C24.8031 20.2366 24.4012 19.1908 23.5448 18.6606L20.7478 16.9665L22.1778 13.297L23.1036 15.2391C23.469 16.005 24.2418 16.4996 25.0726 16.4996H27.5385C28.3455 16.4996 29 15.8278 29 14.9995C29 14.1712 28.3455 13.4999 27.5385 13.4999Z" fill="black"/>
<path d="M13.4231 7.50018C14.6339 7.50018 15.6154 6.49279 15.6154 5.25009C15.6154 4.00738 14.6339 3 13.4231 3C12.2123 3 11.2308 4.00738 11.2308 5.25009C11.2308 6.49279 12.2123 7.50018 13.4231 7.50018ZM6.19257 17.882L5.51661 19.5002H2.46154C1.6545 19.5002 1 20.1719 1 21.0002C1 21.8285 1.6545 22.5003 2.46154 22.5003H5.99892C6.87812 22.5003 7.66964 21.964 8.01356 21.1366L8.41502 20.1747L7.92769 19.8794C7.13663 19.3999 6.55476 18.6901 6.19257 17.882ZM18.5385 13.4999H16.5275L15.3372 11.0038C14.7663 9.80605 13.7181 8.93039 12.5156 8.61584L9.26911 7.62487C7.97656 7.30611 6.63058 7.59909 5.5769 8.42834L3.76505 9.85386C3.12425 10.3578 3.00276 11.2991 3.49466 11.9568C3.98656 12.6144 4.90322 12.7377 5.54356 12.2343L7.35632 10.8087C7.70663 10.5326 8.15286 10.4337 8.51048 10.5209L9.18187 10.7258L7.47096 14.8223C6.89457 16.2043 7.41113 17.8229 8.67216 18.587L12.5535 20.9388L11.2988 25.0513C11.0577 25.8417 11.4865 26.6831 12.2566 26.9306C12.4023 26.9775 12.5494 27 12.6941 27C13.3157 27 13.8921 26.5889 14.0881 25.9476L15.5332 21.2102C15.8031 20.2366 15.4012 19.1908 14.5448 18.6606L11.7478 16.9665L13.1778 13.297L14.1036 15.2391C14.469 16.005 15.2418 16.4996 16.0726 16.4996H18.5385C19.3455 16.4996 20 15.8278 20 14.9995C20 14.1712 19.3455 13.4999 18.5385 13.4999Z" fill="black"/>
<path d="M47 16H41V22H39V16H33V14H39V8H41V14H47V16Z" fill="black"/>
</svg>
