<svg width="130" height="130" viewBox="0 0 130 130" fill="none" xmlns="http://www.w3.org/2000/svg">
<path d="M59 3.4641C62.7128 1.32051 67.2872 1.32051 71 3.4641L115.292 29.0359C119.004 31.1795 121.292 35.141 121.292 39.4282V90.5718C121.292 94.859 119.004 98.8205 115.292 100.964L71 126.536C67.2872 128.679 62.7128 128.679 59 126.536L14.7083 100.964C10.9955 98.8205 8.70835 94.859 8.70835 90.5718V39.4282C8.70835 35.141 10.9955 31.1795 14.7083 29.0359L59 3.4641Z" fill="#E6E6E6"/>
<path d="M65 32.9375C56.4995 32.9472 48.3498 36.3283 42.3391 42.3391C36.3283 48.3498 32.9472 56.4995 32.9375 65C34.6989 107.535 95.3076 107.523 97.0626 64.9997C97.0528 56.4992 93.6717 48.3497 87.6609 42.3389C81.6501 36.3282 73.5005 32.9471 65 32.9375ZM65 93.6875C57.3943 93.6788 50.1025 90.6536 44.7245 85.2755C39.3464 79.8975 36.3212 72.6057 36.3125 65C37.8886 26.9422 92.1171 26.9532 93.6876 65.0002C93.6788 72.6059 90.6536 79.8976 85.2755 85.2756C79.8974 90.6536 72.6057 93.6788 65 93.6875Z" fill="#DF1525"/>
<path d="M76.3181 53.6819C76.1614 53.5251 75.9754 53.4008 75.7707 53.316C75.566 53.2312 75.3465 53.1875 75.1249 53.1875C74.9033 53.1875 74.6839 53.2312 74.4792 53.316C74.2745 53.4008 74.0885 53.5251 73.9318 53.6819L64.9999 62.6138L56.0681 53.6819C55.75 53.3733 55.3233 53.2022 54.8802 53.2055C54.4371 53.2089 54.013 53.3864 53.6997 53.6998C53.3863 54.0132 53.2088 54.4372 53.2055 54.8804C53.2022 55.3235 53.3733 55.7502 53.6819 56.0682L62.6137 65L53.6818 73.9319C53.3654 74.2483 53.1876 74.6775 53.1876 75.125C53.1876 75.5725 53.3654 76.0017 53.6818 76.3181C53.9983 76.6346 54.4274 76.8123 54.8749 76.8123C55.3225 76.8123 55.7516 76.6346 56.0681 76.3181L64.9999 67.3862L73.9318 76.3181C74.0883 76.4751 74.2743 76.5995 74.479 76.6844C74.6838 76.7692 74.9033 76.8128 75.1249 76.8125C75.4563 76.8071 75.7788 76.705 76.0528 76.5187C76.3268 76.3324 76.5404 76.07 76.6672 75.7638C76.794 75.4577 76.8285 75.1211 76.7664 74.7956C76.7044 74.4701 76.5485 74.1699 76.318 73.9318L67.3862 65L76.3181 56.0681C76.4748 55.9115 76.5991 55.7255 76.684 55.5207C76.7688 55.316 76.8124 55.0966 76.8124 54.875C76.8124 54.6534 76.7688 54.434 76.684 54.2293C76.5991 54.0245 76.4748 53.8385 76.3181 53.6819Z" fill="#DF1525"/>
</svg>
