<svg width="130" height="130" viewBox="0 0 130 130" fill="none" xmlns="http://www.w3.org/2000/svg">
<path d="M59 3.4641C62.7128 1.32051 67.2872 1.32051 71 3.4641L115.292 29.0359C119.004 31.1795 121.292 35.141 121.292 39.4282V90.5718C121.292 94.859 119.004 98.8205 115.292 100.964L71 126.536C67.2872 128.679 62.7128 128.679 59 126.536L14.7083 100.964C10.9955 98.8205 8.70835 94.859 8.70835 90.5718V39.4282C8.70835 35.141 10.9955 31.1795 14.7083 29.0359L59 3.4641Z" fill="#E5E5E5"/>
<path d="M65 32.9375C56.4995 32.9472 48.3498 36.3283 42.3391 42.3391C36.3283 48.3498 32.9472 56.4995 32.9375 65C34.6989 107.535 95.3076 107.523 97.0626 64.9997C97.0528 56.4992 93.6717 48.3497 87.6609 42.3389C81.6501 36.3282 73.5005 32.9471 65 32.9375ZM65 93.6875C57.3943 93.6788 50.1025 90.6536 44.7245 85.2755C39.3464 79.8975 36.3212 72.6057 36.3125 65C37.8886 26.9422 92.1171 26.9532 93.6876 65.0002C93.6788 72.6059 90.6536 79.8976 85.2755 85.2756C79.8974 90.6536 72.6057 93.6788 65 93.6875Z" fill="#049C6B"/>
<path d="M77.3069 53.3067L62.0002 68.6134L54.943 61.5569C54.625 61.248 54.1983 61.0767 53.755 61.08C53.3117 61.0832 52.8875 61.2607 52.5741 61.5742C52.2606 61.8877 52.0831 62.3119 52.0799 62.7551C52.0767 63.1984 52.248 63.6252 52.5569 63.9432L60.8071 72.1932C61.1248 72.5073 61.5535 72.6835 62.0002 72.6835C62.4469 72.6835 62.8757 72.5073 63.1933 72.1932L79.6931 55.6929C80.0012 55.3747 80.1719 54.9482 80.1684 54.5053C80.1648 54.0625 79.9873 53.6387 79.6741 53.3256C79.361 53.0124 78.9372 52.8349 78.4944 52.8314C78.0515 52.8279 77.625 52.9986 77.3069 53.3067Z" fill="#049C6B"/>
</svg>
