<svg width="340" height="27" viewBox="0 0 340 27" fill="none" xmlns="http://www.w3.org/2000/svg">
<path d="M33.7521 0.254334C31.3007 0.851554 29.486 1.99 27.7509 4.02428C26.6685 5.29337 26.3183 5.87193 25.7293 7.29033C24.7901 9.58589 24.5195 11.0043 24.5195 13.5425C24.5195 17.2191 25.4587 20.2052 27.4007 22.6314C29.9317 25.8228 32.9562 27.1852 36.9994 26.9799C38.05 26.9426 39.3553 26.756 39.8806 26.588C40.979 26.2334 42.8892 25.2069 43.4304 24.6843L43.7965 24.3297L42.9051 21.9035C42.4116 20.5785 41.9818 19.44 41.9341 19.4027C41.9022 19.3654 41.5839 19.6453 41.2177 20.0372C38.6868 22.7247 33.9909 22.5381 31.6031 19.6453C30.2023 17.9656 29.6134 16.118 29.6134 13.4492C29.6134 9.04466 31.9215 5.81594 35.5349 5.16273C37.7317 4.77081 39.8647 5.49867 41.4088 7.19701L42.141 7.99952L43.0643 5.44268L44.0034 2.9045L43.4622 2.38193C42.73 1.65407 40.4537 0.552944 39.037 0.235671C37.6043 -0.0816018 35.137 -0.0816018 33.7521 0.254334Z" fill="white"/>
<path d="M9.48726 0.945806C9.35992 1.28174 8.8187 2.73746 8.27748 4.17452C7.73626 5.61158 7.08361 7.32859 6.84484 8.00046C6.60606 8.67233 6.00117 10.296 5.49179 11.6398C1.67141 21.8112 0 26.365 0 26.5143C0 26.5889 1.13019 26.6636 2.51508 26.6636H5.04608L5.92158 24.0881C7.79993 18.6384 11.9228 6.88068 12.066 6.60073C12.1615 6.35811 12.3525 6.75003 12.8619 8.22442C13.228 9.28822 13.9921 11.4905 14.5652 13.1328C15.1223 14.7752 15.5999 16.1749 15.5999 16.2496C15.5999 16.3429 14.0558 16.3989 12.1774 16.3989C10.2991 16.3989 8.75502 16.4362 8.75502 16.4735C8.75502 16.5108 9.13706 17.5373 9.61461 18.7504L10.4742 20.9713L13.9125 21.0273C15.8068 21.046 17.3509 21.0833 17.3509 21.1206C17.3509 21.1393 17.7807 22.3711 18.29 23.8641L19.2292 26.5703L21.8716 26.6262L24.5141 26.6636L24.3708 26.253C24.1479 25.5998 23.2565 23.2482 19.7386 13.8793C17.9717 9.15758 16.1092 4.19319 15.6158 2.86811L14.7084 0.441902L12.2093 0.385912L9.71012 0.329923L9.48726 0.945806Z" fill="white"/>
<path d="M48.2305 10.8932V21.4566L49.2174 24.0507L50.1884 26.6636H57.6541H65.1038V24.2374V21.8112H59.1345H53.1651V13.5061V5.20099H58.9753H64.7854V2.77479V0.348584H56.5079H48.2305V10.8932Z" fill="white"/>
<path d="M110.562 1.59901C110.308 2.30821 109.83 3.5773 109.496 4.45447C108.891 6.07816 107.793 9.00827 106.265 13.0768C105.803 14.3459 104.641 17.4253 103.702 19.9449C102.763 22.4644 101.823 24.9652 101.616 25.5251C101.409 26.0664 101.234 26.5516 101.234 26.5889C101.234 26.6449 102.38 26.6449 103.797 26.6262L106.344 26.5703L107.299 23.8641C107.84 22.3711 108.62 20.1315 109.066 18.8811C109.512 17.612 109.926 16.5855 109.973 16.5855C110.021 16.5855 110.483 17.5933 110.976 18.8251L111.868 21.0646H115.274H118.665L119.62 23.8641L120.575 26.6636H123.154C124.586 26.6636 125.748 26.5889 125.748 26.4956C125.748 26.421 124.984 24.3307 124.061 21.8858C123.138 19.4223 122.039 16.4922 121.626 15.3724C120.225 11.6584 117.296 3.83859 116.627 2.06559L115.975 0.348584H113.491H111.008L110.562 1.59901ZM114.924 10.3333C115.64 12.3863 116.389 14.5885 116.595 15.2231L116.977 16.3989H113.46C110.196 16.3989 109.958 16.3802 110.053 16.0629C111.008 13.1142 113.444 6.37677 113.523 6.47008C113.571 6.54474 114.208 8.28041 114.924 10.3333Z" fill="white"/>
<path d="M129.598 26.1636V16.0394C129.689 16.0766 129.776 16.0833 129.842 16.08C129.985 16.0728 130.103 16.0153 130.168 15.9804C130.246 15.9388 130.324 15.8857 130.4 15.8291L130.403 15.8267C130.824 15.5075 130.907 15.528 130.931 15.5339L130.933 15.5342C130.964 15.5417 131.038 15.5715 131.182 15.6928C131.324 15.8124 131.499 15.9904 131.735 16.2487C132.295 16.8758 133.189 17.7972 133.957 18.5594C134.342 18.9415 134.699 19.2874 134.969 19.5391C135.103 19.6643 135.221 19.7703 135.311 19.8469C135.355 19.8843 135.401 19.9209 135.442 19.9505C135.462 19.9646 135.49 19.9843 135.524 20.0026C135.54 20.0117 135.567 20.0253 135.6 20.0378C135.626 20.0476 135.694 20.0716 135.783 20.0716C135.904 20.0716 135.992 20.0286 136.027 20.0099C136.069 19.9873 136.1 19.9632 136.118 19.9484C136.155 19.9185 136.183 19.8876 136.201 19.868C136.238 19.826 136.276 19.7759 136.311 19.7273C136.384 19.6271 136.475 19.4897 136.577 19.3297C136.783 19.0074 137.049 18.5677 137.329 18.0891M129.598 26.1636L136.898 17.8359M129.598 26.1636V26.6636H134.717M129.598 26.1636L140.245 24.0066M129.598 26.1636H134.716L134.715 26.1636L134.717 26.6636M129.598 26.1636H134.717M137.329 18.0891C137.329 18.0889 137.329 18.0887 137.329 18.0885L136.898 17.8359M137.329 18.0891C137.329 18.0892 137.329 18.0894 137.329 18.0896L136.898 17.8359M137.329 18.0891C137.503 17.7931 137.655 17.5326 137.788 17.3031C137.986 16.9629 138.144 16.6909 138.278 16.4732C138.34 16.3723 138.393 16.2885 138.44 16.2192M136.898 17.8359C137.883 16.1626 138.202 15.5134 138.469 15.5344C138.664 15.5496 138.83 15.9208 139.206 16.5108M138.44 16.2192C138.385 16.1309 138.343 16.0671 138.308 16.0199C138.283 15.9858 138.27 15.9739 138.27 15.9738C138.27 15.9738 138.285 15.988 138.316 16.0026C138.424 16.0548 138.541 16.0338 138.605 15.9976C138.612 15.9936 138.615 15.9909 138.616 15.9911C138.616 15.9915 138.591 16.0122 138.538 16.0809C138.509 16.1187 138.476 16.1644 138.44 16.2192ZM138.44 16.2192C138.456 16.2461 138.474 16.2753 138.493 16.307C138.508 16.3314 138.524 16.3569 138.54 16.3836C138.609 16.4973 138.69 16.6308 138.782 16.7762M138.782 16.7762C138.781 16.7752 138.781 16.7741 138.78 16.7731L139.206 16.5108M138.782 16.7762C138.962 17.0691 139.122 17.337 139.241 17.5463M138.782 16.7762C138.783 16.7773 138.783 16.7783 138.784 16.7794L139.206 16.5108M139.206 16.5108L139.241 17.5463M139.241 17.5463C139.325 17.5074 139.403 17.4707 139.469 17.4389C139.558 17.3963 139.614 17.3682 139.639 17.3557C139.651 17.3498 139.655 17.3474 139.653 17.3486L139.906 17.7799L139.526 17.4555C139.444 17.5512 139.421 17.6511 139.414 17.7024C139.406 17.7565 139.409 17.7993 139.411 17.8207C139.416 17.8633 139.425 17.8919 139.426 17.8947C139.427 17.8984 139.428 17.9001 139.428 17.8995C139.427 17.8982 139.424 17.8897 139.415 17.8718C139.391 17.82 139.348 17.7379 139.286 17.6266C139.272 17.601 139.257 17.5741 139.241 17.5463ZM139.241 17.5463C139.177 17.5758 139.11 17.6066 139.041 17.6374M139.241 17.5463L139.238 18.0972M139.041 17.6374C139.044 17.6361 139.047 17.6349 139.05 17.6337L139.238 18.0972M139.041 17.6374C139.039 17.6385 139.036 17.6396 139.034 17.6407L139.238 18.0972M139.041 17.6374C138.707 17.7752 138.4 18.0389 138.062 18.4166C137.716 18.8024 137.296 19.3535 136.746 20.1198L136.747 20.119L137.152 20.4114M139.238 18.0972C138.776 18.2838 138.251 18.8811 137.152 20.4114M137.152 20.4114L136.746 20.1199M137.152 20.4114L136.746 20.1199M136.746 20.1199L135.416 21.9644M136.746 20.1199L135.672 22.4644M135.416 21.9644H135.672V22.4644M135.416 21.9644L135.266 22.1719L135.672 22.4644M135.416 21.9644H134.924C134.65 21.9644 134.363 21.9777 134.129 22.061C134.003 22.1061 133.867 22.18 133.755 22.3056C133.64 22.4356 133.58 22.5887 133.559 22.7427C133.522 23.0167 133.607 23.3132 133.711 23.5863C133.821 23.8778 133.99 24.2354 134.206 24.6652M135.672 22.4644H134.924C133.826 22.4644 133.794 22.7257 134.653 24.4427M134.206 24.6652C134.205 24.6648 134.205 24.6644 134.205 24.664L134.653 24.4427M134.206 24.6652C134.427 25.1138 134.622 25.4731 134.793 25.7328C134.878 25.8622 134.965 25.9799 135.054 26.0749C135.079 26.1015 135.109 26.1317 135.144 26.1621M134.206 24.6652C134.206 24.6656 134.206 24.6661 134.206 24.6665L134.653 24.4427M134.653 24.4427L135.144 26.1621M135.144 26.1621L136.064 26.1591M135.144 26.1621L135.815 24.7973M135.144 26.1621L134.717 26.1636M135.144 26.1621C135.219 26.2277 135.317 26.2948 135.437 26.3307C135.536 26.3604 135.658 26.3709 135.786 26.3333C135.907 26.2979 135.999 26.23 136.064 26.1591M136.064 26.1591C136.068 26.155 136.072 26.1509 136.075 26.1468C136.193 26.0121 136.241 25.8472 136.266 25.7352C136.318 25.4946 136.327 25.1643 136.315 24.7824M136.064 26.1591L140.027 26.1459M136.315 24.7824C136.315 24.7826 136.315 24.7828 136.315 24.7831L135.815 24.7973M136.315 24.7824C136.315 24.7821 136.315 24.7818 136.315 24.7815L135.815 24.7973M136.315 24.7824C136.307 24.5151 136.311 24.2508 136.324 24.0444C136.33 23.9538 136.337 23.8799 136.344 23.8247M135.815 24.7973C135.799 24.2374 135.831 23.6775 135.895 23.5655M136.344 23.8247C136.331 23.8366 136.319 23.8473 136.309 23.8569C136.286 23.8777 136.278 23.8867 136.278 23.8867C136.277 23.8866 136.289 23.8747 136.302 23.8552L135.895 23.5655M136.344 23.8247C136.374 23.7988 136.41 23.7672 136.454 23.73C136.581 23.6219 136.758 23.4761 136.975 23.3028C137.408 22.9568 137.988 22.5079 138.612 22.0447L138.614 22.0437C139.062 21.7084 139.467 21.412 139.797 21.1766M136.344 23.8247C136.345 23.8166 136.347 23.8088 136.348 23.8015C136.352 23.7728 136.356 23.7571 136.357 23.7515C136.36 23.7382 136.355 23.7684 136.33 23.8126L135.895 23.5655M135.895 23.5655L139.797 21.1766M139.797 21.1766C139.785 20.9534 139.786 20.753 139.802 20.5789C139.802 20.5728 139.803 20.5668 139.803 20.5607C139.428 20.8217 138.907 21.2001 138.314 21.6432L139.797 21.1766ZM139.797 21.1766C139.934 21.0789 140.059 20.9918 140.168 20.9168C140.211 20.8867 140.252 20.8591 140.29 20.8338C140.281 21.4515 140.426 22.4685 140.734 23.9014M139.797 21.1766C139.801 21.254 139.807 21.3342 139.814 21.4169C139.868 22.0614 140.013 22.9248 140.245 24.0056L140.245 24.0044L140.734 23.9014M129.842 15.0819L129.865 15.1122C129.864 15.1133 129.864 15.1144 129.863 15.1156L129.838 15.0816M129.842 15.0819C129.841 15.0818 129.839 15.0816 129.838 15.0816M129.842 15.0819L129.802 15.0276C129.801 15.028 129.801 15.0284 129.8 15.0287M129.842 15.0819C129.853 15.0827 129.864 15.0839 129.876 15.0857C129.899 15.0332 129.924 14.9764 129.953 14.9154C129.901 14.9527 129.85 14.9908 129.8 15.0287M129.838 15.0816C129.82 15.0805 129.805 15.0806 129.792 15.0812C129.741 15.0838 129.705 15.0958 129.691 15.1015C129.692 15.101 129.693 15.1005 129.694 15.0999C129.711 15.0907 129.746 15.0694 129.8 15.0287M129.838 15.0816L129.798 15.03C129.799 15.0296 129.8 15.0292 129.8 15.0287M138.898 3.02913C139.091 2.4571 139.227 2.46563 139.349 3.05474C139.349 3.05544 139.349 3.05615 139.35 3.05686L138.898 3.02913ZM138.898 3.02913C138.946 3.0623 139.014 3.09493 139.099 3.10404L138.898 3.02913ZM140.734 23.9014L140.245 24.0066M140.734 23.9014L141.036 25.3385M140.245 24.0066L140.51 25.263M140.245 24.0066L134.717 26.1636M141.036 25.3385L140.686 25.9917M141.036 25.3385L140.547 25.4415L140.51 25.263M141.036 25.3385L140.596 25.1022L140.51 25.263M140.686 25.9917L140.32 26.6449M140.686 25.9917L140.246 25.7555L140.248 25.7513M140.686 25.9917L140.25 25.7472L140.248 25.7513M140.32 26.6449L134.717 26.6636M140.32 26.6449L140.318 26.1449L140.027 26.1459M140.32 26.6449L139.884 26.4004L140.027 26.1459M134.717 26.6636V26.1636M140.027 26.1459L140.248 25.7513M140.248 25.7513L140.51 25.263M129.372 0.997881L129.37 0.997887L120.929 1.03219L121.089 1.42183C121.351 2.01717 121.752 3.07115 122.006 3.75888L122.006 3.75886L122.008 3.76622L122.337 4.70099H125.548H129.098H129.598V5.20099V14.5027C129.671 14.3562 129.756 14.1938 129.851 14.0157L129.851 14.0157L129.853 14.0132C130.013 13.7192 130.163 13.4731 130.305 13.2838C130.434 13.1108 130.601 12.9214 130.812 12.8239C130.93 12.7691 131.085 12.7325 131.257 12.7711C131.428 12.8097 131.553 12.9089 131.635 13.008C131.783 13.1843 131.853 13.4237 131.895 13.6282L131.896 13.6282L131.898 13.6389C131.914 13.7281 131.939 13.8064 132.108 13.9573C132.304 14.1332 132.646 14.3626 133.271 14.7386L133.271 14.7386L133.274 14.74C133.697 14.9977 134.132 15.2838 134.492 15.5378C134.732 15.7073 134.96 15.8777 135.129 16.022C135.217 15.6666 135.316 15.2219 135.409 14.7644C135.505 14.289 135.594 13.805 135.659 13.3992C135.726 12.9791 135.761 12.6808 135.761 12.5543C135.761 12.0117 135.776 11.5617 135.979 11.1732C136.183 10.7818 136.542 10.5178 136.983 10.2183L136.983 10.218L137.208 10.0657L136.362 9.18705L136.362 9.18708L136.358 9.18283C136.012 8.81483 135.691 8.45741 135.456 8.17702C135.339 8.03801 135.238 7.91074 135.164 7.80722C135.129 7.75682 135.091 7.70081 135.062 7.64559C135.047 7.61857 135.027 7.57932 135.012 7.53292C135.002 7.50616 134.975 7.42532 134.982 7.32016C134.991 7.12855 135.091 6.98199 135.137 6.91914C135.201 6.83078 135.282 6.74519 135.365 6.66685C135.532 6.50823 135.755 6.33339 135.999 6.16145C136.374 5.89765 136.83 5.61959 137.273 5.39591C137.079 5.48884 136.884 5.55931 136.695 5.59771L136.691 5.5984C136.528 5.63037 136.379 5.65816 136.258 5.67105C136.167 5.68083 135.967 5.70055 135.783 5.60886C135.667 5.55108 135.571 5.45692 135.512 5.33301C135.459 5.22213 135.451 5.11648 135.451 5.04732C135.451 4.92587 135.48 4.79447 135.501 4.70426C135.55 4.45896 135.641 3.97674 135.685 3.62583L135.686 3.61836L135.688 3.61092C135.772 3.08009 136.128 2.47914 136.518 1.99967C136.857 1.58268 137.291 1.17336 137.727 0.94458C137.019 0.949251 136.182 0.954248 135.258 0.95977C133.518 0.970169 131.467 0.98243 129.372 0.997881ZM130.35 15.2495C130.307 15.2782 130.262 15.3097 130.214 15.3439C130.252 15.428 130.251 15.4975 130.248 15.5207C130.254 15.4926 130.279 15.4098 130.35 15.2495ZM134.976 16.5687C134.983 16.5759 134.989 16.583 134.996 16.59C135.058 16.5209 135.14 16.4685 135.235 16.4429C135.356 16.4105 135.453 16.4334 135.49 16.4437C135.506 16.448 135.519 16.4527 135.531 16.4573C135.534 16.4488 135.536 16.4403 135.539 16.4316L134.976 16.5687ZM139.435 4.08852C139.307 3.9931 139.2 3.86767 139.119 3.74766C138.903 4.09983 138.596 4.43762 138.278 4.71614C138.003 4.95697 137.686 5.18409 137.361 5.35171C137.465 5.30071 137.568 5.25299 137.668 5.20946C138.517 4.83514 139.074 4.47486 139.34 4.19999C139.385 4.15404 139.415 4.11689 139.435 4.08852ZM138.859 3.15413C138.859 3.15267 138.859 3.15121 138.858 3.14977C138.578 3.92885 137.409 4.94249 136.595 5.10768C135.927 5.23832 135.895 5.21966 135.99 4.80907C136.038 4.56645 136.134 4.06255 136.181 3.68928L138.859 3.15413ZM140.388 20.1878C140.326 20.2133 140.188 20.299 139.99 20.4326C140.065 20.5636 140.19 20.6372 140.296 20.6646C140.312 20.4484 140.352 20.2959 140.416 20.2061C140.434 20.1787 140.424 20.1732 140.389 20.1873L140.416 20.2061L140.388 20.1878Z" stroke="white"/>
<path d="M147.291 0.759172C147.419 0.983129 147.403 1.20709 147.244 1.54302C147.084 1.91629 147.068 2.12158 147.212 2.49484C147.307 2.75613 147.339 2.96142 147.259 2.96142C147.196 2.96142 147.068 3.24137 146.973 3.55864C146.862 4.02522 146.75 4.15586 146.495 4.1372C146.304 4.11853 146.082 4.21185 145.97 4.36115C145.827 4.56645 145.906 4.80907 146.352 5.57426C146.893 6.48875 146.925 6.63805 146.925 8.01912C146.925 8.8403 146.941 9.49351 146.973 9.49351C146.989 9.49351 147.403 9.32554 147.88 9.15757C148.597 8.87763 148.804 8.691 149.042 8.1311C149.281 7.55255 149.377 7.47789 149.679 7.60853C149.95 7.73918 150.029 7.90714 150.029 8.4857C150.029 9.17624 149.997 9.21356 149.44 9.32554C149.122 9.38153 148.613 9.6988 148.278 10.0161C147.657 10.6693 146.591 11.3598 146.225 11.3598C146.113 11.3598 145.954 11.2105 145.906 11.0425C145.747 10.5946 145.508 10.9679 145.461 11.7144C145.413 12.3116 145.493 12.4236 146.639 13.3941C148.151 14.6819 149.631 16.7161 149.631 17.5C149.631 17.9852 149.313 18.3585 146.925 20.6727C144.506 23.0429 144.219 23.3789 144.044 24.0881C143.948 24.536 143.837 25.0026 143.805 25.1332C143.662 25.6931 143.328 25.1519 142.993 23.8454C142.532 21.9791 142.532 21.9978 143.232 21.9978C143.821 21.9978 143.869 21.9418 144.935 20.1128C145.54 19.0677 146.273 18.0412 146.575 17.7986L147.1 17.3693L146.495 17.2387C146.161 17.1827 145.445 16.8468 144.904 16.5295L143.901 15.9509L143.328 16.5855C143.025 16.9401 142.516 17.612 142.213 18.0972L141.656 18.937V22.2404C141.656 24.0694 141.704 25.6371 141.752 25.7304C141.8 25.8237 142.134 26.0104 142.468 26.1223C142.818 26.253 143.105 26.421 143.105 26.5143C143.105 26.5889 145.715 26.6636 148.915 26.6636H154.725V15.9323V5.20099L158.227 5.16367L161.729 5.10768L162.605 2.88677C163.082 1.655 163.48 0.609867 163.48 0.553878C163.48 0.497888 159.803 0.441899 155.298 0.441899C147.673 0.441899 147.148 0.460562 147.291 0.759172Z" fill="#FF0000"/>
<path d="M165.711 10.8373V21.3446L166.698 23.9947L167.701 26.6636H174.737H181.772L181.152 24.9839C180.801 24.0694 180.372 22.9683 180.197 22.5577L179.878 21.8112L175.294 21.7738L170.725 21.7178L170.677 11.0239L170.646 0.348584H168.178H165.711V10.8373Z" fill="white"/>
<path d="M181.465 10.8932V21.4379L182.436 24.0507L183.423 26.6636H190.952H198.497V24.2374V21.8112H192.448H186.399V16.4549C186.399 13.5061 186.463 11.1732 186.527 11.2852C186.606 11.3785 187.004 12.405 187.434 13.5434L188.214 15.6523H192.003H195.791V13.3194V10.9866H191.095H186.399V8.09378V5.20099H192.21H198.02V2.77479V0.348584H189.742H181.465V10.8932Z" fill="white"/>
<path d="M213.055 11.2199V21.7646L214.026 24.3774L215.013 26.9902H222.542H230.087V24.564V22.1378H224.038H217.989V16.7815C217.989 13.8327 218.053 11.4998 218.117 11.6118C218.196 11.7051 218.594 12.7316 219.024 13.8701L219.804 15.979H223.593H227.381V13.6461V11.3132H222.685H217.989V8.42044V5.52765H223.799H229.61V3.10145V0.675244H221.332H213.055V11.2199Z" fill="white"/>
<path d="M143.725 1.98479C143.715 1.67469 143.76 1.34084 143.874 1.03335H143.083H142.44C142.561 1.2685 142.628 1.52893 142.628 1.84909C142.628 2.29959 142.494 2.85485 142.273 3.60485L142.273 3.60486L142.273 3.60681C142.193 3.87355 142.125 4.09102 142.063 4.26348C142.003 4.43012 141.939 4.58576 141.858 4.71135C141.772 4.84429 141.64 4.98887 141.43 5.05221C141.319 5.08578 141.214 5.08728 141.127 5.07811C141.123 5.13516 141.124 5.21547 141.134 5.3163C141.376 5.14536 141.685 4.95274 142.014 4.76352C142.705 4.3654 143.546 3.94685 144.109 3.77079C144.212 3.73745 144.279 3.71052 144.324 3.68826C144.334 3.68322 144.342 3.6788 144.348 3.67507C144.349 3.66446 144.35 3.65015 144.35 3.63142C144.35 3.5972 144.337 3.5201 144.295 3.42115C144.255 3.32432 144.204 3.24828 144.167 3.20834L144.165 3.20683C143.861 2.87989 143.739 2.40723 143.725 1.98479Z" fill="black" stroke="white"/>
<path d="M79.9102 10.9103L79.9261 21.1563L80.9926 24.0491L82.075 26.9419L87.8852 26.9232C94.0296 26.9232 94.4912 26.8672 96.6402 25.9341C97.8182 25.4115 99.0439 24.1051 99.601 22.78C99.999 21.8282 100.047 21.5109 100.047 19.8499C100.047 18.1516 99.999 17.8903 99.5851 16.9011C99.0279 15.6134 97.8659 14.2883 96.8312 13.7657L96.0672 13.3738L96.4651 13.0752C98.5982 11.4142 99.4737 8.5214 98.7255 5.62862C98.4549 4.58348 98.232 4.1729 97.5635 3.37038C96.6084 2.28792 95.8284 1.78402 94.0933 1.24279C92.9949 0.888187 92.3264 0.850861 86.4048 0.757546L79.9102 0.682893V10.9103ZM92.406 5.75926C93.4247 6.35648 93.9182 7.21498 93.9182 8.35343C93.9182 9.5852 93.4725 10.425 92.5492 10.9849C91.8011 11.4328 91.6896 11.4515 88.3468 11.4515H84.9244L84.8766 8.74536C84.8607 7.25231 84.8766 5.83391 84.9244 5.59129L85.0199 5.16204L88.315 5.23669C91.4349 5.31135 91.6737 5.33001 92.406 5.75926ZM85.8954 13.7657L86.6754 15.7814L89.6203 15.8747C92.4696 15.9493 92.6129 15.968 93.4884 16.4719C94.6663 17.1438 95.0961 18.0209 95.0006 19.514C94.9051 20.7644 94.539 21.3989 93.5043 21.9962C92.7402 22.4627 92.6607 22.4627 88.8244 22.4627H84.9244L84.8766 17.0878C84.8607 14.0084 84.9085 11.7315 84.9881 11.7315C85.0677 11.7315 85.4815 12.6459 85.8954 13.7657Z" fill="white"/>
<path d="M139.826 7.10493L139.523 7.53418L139.89 7.17958C140.081 6.97429 140.24 6.78766 140.24 6.75033C140.24 6.60102 140.112 6.713 139.826 7.10493Z" fill="white"/>
<path d="M138.106 7.3839C138.058 7.43989 137.708 7.49588 137.358 7.47722C136.61 7.43989 136.578 7.30925 137.756 8.98893C138.361 9.84744 138.393 9.8661 138.679 9.53016C138.95 9.21289 138.95 9.1569 138.711 8.31706C138.456 7.42123 138.297 7.17861 138.106 7.3839Z" fill="white"/>
<path d="M141.874 7.8694C141.269 8.07469 141.237 8.13068 141.428 8.42929C141.555 8.65325 141.667 8.69057 141.746 8.5786C141.89 8.29865 142.574 8.31731 142.67 8.59726C142.717 8.7279 142.765 8.55993 142.765 8.224C142.781 7.90672 142.733 7.62678 142.67 7.64544C142.59 7.6641 142.24 7.75742 141.874 7.8694Z" fill="#FF0000"/>
<path d="M141.575 11.375C141.476 11.2138 141.276 10.966 140.921 10.5708L140.799 10.713C140.62 10.9231 140.378 11.411 140.281 11.77L140.281 11.77L140.278 11.7791C140.179 12.1192 140.161 12.2296 140.196 12.4237C140.243 12.6772 140.381 13.0466 140.708 13.8603L140.708 13.8603L140.709 13.8645C140.775 14.0312 140.839 14.1919 140.901 14.3424C140.934 14.2341 140.966 14.1223 140.998 14.0091C141.092 13.6736 141.179 13.3326 141.241 13.0445C141.307 12.7401 141.336 12.5396 141.336 12.4602C141.336 12.234 141.358 12.0073 141.398 11.8193C141.418 11.7266 141.445 11.6287 141.483 11.5397C141.497 11.5075 141.525 11.4433 141.575 11.375Z" stroke="#FF0000"/>
<path d="M142.248 9.17443C141.978 9.39839 141.978 9.43571 142.296 9.86497L142.614 10.3315L142.63 9.62234C142.63 8.83849 142.63 8.83849 142.248 9.17443Z" fill="#FF0000"/>
<path d="M53.3281 11.0794C53.3281 11.1354 53.6942 12.1805 54.1559 13.4123L54.9836 15.6519H58.7722H62.5607V13.319V10.9861H57.9444C55.4134 10.9861 53.3281 11.0234 53.3281 11.0794Z" fill="white"/>
<path d="M277.238 13.8193V26.9634H279.788H282.338L282.37 19.0399L282.418 11.1165L287.916 19.0399L293.398 26.9634H295.518H297.638V13.8193V0.675269H295.167H292.697V8.65427C292.697 13.2269 292.633 16.5962 292.554 16.5592C292.474 16.5222 289.956 12.9492 286.944 8.58021L281.478 0.675269H279.358H277.238V13.8193Z" fill="white"/>
<path d="M230.926 0.804858C230.974 0.897422 232.887 6.11802 235.182 12.4309C237.477 18.7437 239.612 24.5937 239.915 25.4268L240.473 26.9634H243.054H245.62L250.322 14.06C252.904 6.9696 255.039 1.06404 255.071 0.915934C255.119 0.712294 254.673 0.675269 252.617 0.712294L250.115 0.767832L246.832 9.76503C245.031 14.7079 243.469 18.9474 243.373 19.1695C243.23 19.5583 242.784 18.429 239.803 10.1353L236.409 0.675269H233.636C232.106 0.675269 230.895 0.730807 230.926 0.804858Z" fill="white"/>
<path d="M257.387 10.8943L257.403 21.1319L258.407 24.0013L259.427 26.8708L267.013 26.9264L274.599 26.9634V24.5567V22.1501H268.543H262.487V13.8193V5.48858H268.383H274.28V3.08193V0.675269H265.833H257.387V10.8943Z" fill="white"/>
<path d="M300.69 1.48901C300.856 1.95124 301.244 3.05179 301.558 3.91022L302.131 5.51702H305.511H308.892V16.1923V26.8677H311.385H313.879V16.1923V5.51702H317.259H320.64L321.416 3.44799C321.841 2.30342 322.247 1.22488 322.302 1.02678C322.413 0.696614 321.453 0.674603 311.404 0.674603H300.395L300.69 1.48901Z" fill="white"/>
<path d="M329.593 0.845217C326.597 1.28952 324.223 3.04824 323.235 5.56597C322.693 6.95443 322.565 9.04637 322.932 10.5274C323.665 13.4339 325.195 14.6372 330.071 16.1182C333.036 17.0069 334.056 17.4512 334.693 18.1732C335.745 19.3395 335.187 21.1722 333.546 21.9498C333.163 22.1164 332.35 22.2089 330.996 22.2089C328.605 22.2089 327.553 21.9127 325.402 20.6724L323.888 19.8023L323.474 20.913C323.235 21.524 322.868 22.5051 322.645 23.079L322.23 24.1343L322.964 24.6341C325.179 26.1336 327.936 26.9297 330.948 26.9297C333.355 26.9297 334.677 26.6335 336.319 25.7634C337.785 24.9673 338.964 23.6529 339.57 22.1534C339.952 21.2278 340 20.876 340 19.1543C340 17.3956 339.952 17.0994 339.554 16.1553C338.598 13.9152 337.004 12.897 332.287 11.5456C329.689 10.8051 328.717 10.3608 328.127 9.69431C327.729 9.21298 327.649 8.99083 327.649 8.23181C327.649 6.34351 329.067 5.36233 331.793 5.39935C333.53 5.39935 334.837 5.7511 336.542 6.65822L337.705 7.28766L337.833 6.88038C337.913 6.65822 338.231 5.73258 338.55 4.82546C338.869 3.89982 339.124 3.06675 339.124 2.93716C339.124 2.82608 338.709 2.51137 338.215 2.25219C335.522 0.86373 332.59 0.382399 329.593 0.845217Z" fill="white"/>
<path d="M262.68 12.2977C262.712 12.3903 263.078 13.427 263.525 14.6118L264.306 16.7778H268.178H272.051V14.4637V12.1496H267.334C264.736 12.1496 262.648 12.2237 262.68 12.2977Z" fill="white"/>
</svg>
