<svg width="393" height="480" viewBox="0 0 393 480" fill="none" xmlns="http://www.w3.org/2000/svg">
<g opacity="0.9" clip-path="url(#clip0_626_1185)">
<path d="M266.678 377.362C267.426 377.308 268.161 377.308 268.87 377.375C268.122 377.227 267.387 377.174 266.678 377.362Z" fill="#1E1C1F"/>
<path d="M202.762 288.933C199.576 293.88 196.726 299.029 194.637 304.608C197.448 299.459 200.144 294.028 202.762 288.933Z" fill="#1E1C1F"/>
<path d="M322.081 192.21C320.108 196.135 318.393 200.249 316.871 204.389C319.45 199.052 322.185 193.742 324.854 188.392C323.19 188.809 322.855 190.677 322.081 192.21Z" fill="#1E1C1F"/>
<path d="M260.823 21.8316C254.813 11.0368 247.191 5.21589 236.461 6.26445C221.849 7.70287 213.054 16.0107 211.893 27.9482C211.325 33.7556 207.598 36.7803 203.11 34.1186C191.129 27.0072 179.858 38.9178 169.373 29.4942C168.908 31.5106 169.192 33.1372 169.966 35.1268C142.857 40.531 140.046 63.7069 140.046 63.7069C140.046 63.7069 148.222 53.5439 156.579 52.8583C139.027 68.3851 140.729 86.614 142.754 97.2475C144.185 95.8897 148.854 83.7103 181.005 82.2584C180.515 82.2853 177.626 85.552 177.265 85.9149C178.297 85.7805 180.967 85.2159 181.792 85.0277C183.353 84.6782 184.913 84.2614 186.435 83.7506C197.333 80.1209 206.089 70.2537 209.52 58.9884C210.861 54.6328 211.519 50.0352 211.467 45.4646L213.286 44.0665C213.286 44.0665 213.273 48.2339 215.826 54.7807C217.309 58.5716 223.281 66.8526 223.281 66.8526C223.165 70.899 222.133 74.7034 219.605 77.9969C216.381 82.1912 211.609 84.4765 207.031 86.7215C207.031 86.7215 201.821 89.1009 195.321 91.9778C189.582 94.5185 180.838 99.0757 176.04 102.598C170.495 106.658 164.678 112.021 161.66 117.547C159.881 120.813 157.933 123.946 161.273 127.105C170.095 135.48 181.573 147.458 192.999 151.853C192.935 152.754 192.87 183.982 185.661 193.285C184.075 195.328 179.38 197.184 176.969 198.393C173.59 200.087 171.01 202.279 168.702 204.913C165.233 208.879 163.272 214.055 162.06 219.284C160.874 224.446 161.905 230.16 160.255 235.12C159.532 237.244 158.604 239.328 157.675 241.358C156.05 244.907 154.206 248.362 152.504 251.87C148.287 260.541 145.075 269.615 142.56 278.972C139.156 291.675 132.127 293.92 121.5 288.288C119.514 286.916 109.3 280.692 109.055 280.558C91.0898 270.543 60.615 271.054 59.1964 267.572C56.1141 257.342 49.7044 254.424 40.6123 259.479C35.3376 262.41 33.3257 266.631 25.6135 271.484C21.5897 274.011 11.8269 273.352 2.65742 286.244C-2.21752 293.114 0.942164 295.856 2.55425 297.348C4.84985 299.472 9.55713 298.706 14.6255 296.044C19.8874 293.262 28.8634 291.595 34.7701 291.339C37.6976 291.205 39.7611 291.595 40.7413 290.963C45.268 288.032 57.7133 289.82 69.9264 297.967C88.9232 310.644 110.474 319.328 131.211 328.429C141.683 333.026 147.745 331.091 154.812 322.406C169.011 304.984 186.976 295.614 197.345 275.073C200.737 268.351 200.724 269.521 204.232 276.377C204.335 276.579 204.439 276.78 204.542 276.982C205.393 275.745 206.296 274.535 207.25 273.393C214.034 265.031 221.514 255.285 223.642 244.396C225.666 236.774 224.751 228.99 226.866 221.206C228.955 212.105 235.004 204.819 241.994 199.267C244.444 197.318 247.01 195.584 249.564 194.051C252.311 192.021 254.723 189.535 255.6 186.617C257.121 182.06 255.071 177.167 251.756 172.69C250.725 171.292 249.564 169.948 248.365 168.657C223.771 140.978 212.228 111.753 251.021 94.4782C249.383 88.1196 248.416 83.1188 249.009 80.1882C250.389 81.1426 254.013 81.6938 254.968 81.6266C260.849 81.2098 262.835 76.209 264.537 71.477C270.457 54.9689 270.018 38.3128 260.849 21.845L260.823 21.8316Z" fill="#1E1C1F"/>
<path d="M288.215 458.41C283.173 459.701 279.046 457.066 275.744 452.845C276.157 453.423 276.595 454.001 277.047 454.552C279.948 458.437 287.325 461.852 290.562 457.053C290.704 456.636 290.795 456.206 290.885 455.776C290.408 457.106 289.556 458.061 288.202 458.41H288.215Z" fill="#1E1C1F"/>
<path d="M291.426 457.51C287.698 463.048 279.767 459.163 276.388 455.184C269.024 446.271 265.503 434.737 263.156 423.431C262.124 415.917 261.841 408.321 257.172 402.205C255.173 399.234 252.104 396.236 251.549 391.706C251.046 383.828 257.03 377.604 263.788 376.044C263.814 374.808 263.84 373.557 263.878 372.294C264.265 359.617 264.459 352.532 264.085 337.436C264.007 334.142 264.381 320.874 263.749 315.859C263.001 308.923 262.963 305.898 262.395 302.134C252.129 315.779 238.897 327.017 225.201 336.979C225.317 350.166 228.051 359.765 232.578 373.315C236.653 385.495 243.411 400.605 244.791 413.497C245.423 419.492 246.648 425.461 246.442 431.511C246.339 434.576 245.862 437.614 244.856 440.504C243.785 443.556 241.915 445.787 240.51 448.61C238.794 452.038 239.117 455.117 240.845 458.451C241.103 458.948 242.56 460.534 242.908 460.964C244.701 463.169 253.432 463.801 259.313 464.137C266.754 464.554 273.615 464.608 280.657 467.242C285.764 469.151 291.567 469.286 296.829 468.036C299.538 467.39 302.181 466.342 304.516 464.769C306.308 463.559 309.171 461.69 309.894 458.262C310.242 456.622 309.326 454.902 308.269 453.813C306.27 451.729 302.71 451.312 300.092 450.586C297.422 449.834 294.714 448.798 292.032 447.589C292.573 450.936 292.702 454.31 291.438 457.496L291.426 457.51Z" fill="#1E1C1F"/>
<path d="M261.958 299.58C261.88 299.217 261.803 298.841 261.726 298.437C259.778 301.059 257.831 303.667 255.858 306.248C251.873 311.464 239.543 322.917 225.215 334.478C225.215 334.814 225.202 335.177 225.189 335.513C238.202 324.342 251.047 312.875 261.958 299.58Z" fill="#1E1C1F"/>
<path d="M115.618 432.613C115.605 432.694 115.579 432.761 115.566 432.815C115.076 434.562 116.301 431.336 115.618 432.613Z" fill="#1E1C1F"/>
<path d="M387.48 117.627C386.074 117.399 384.72 118.246 383.546 119.079C380.709 121.096 377.975 123.273 375.344 125.599C374.918 125.976 374.157 126.312 373.899 125.787C373.77 125.532 373.874 125.236 373.977 124.981C374.841 122.763 379.161 116.794 376.685 114.535C376.118 114.025 375.253 114.025 374.557 114.347C373.874 114.67 373.332 115.248 372.816 115.813C368.766 120.235 363.788 125.72 363.788 132.253C363.866 134.673 363.853 136.206 364.278 138.531C364.781 141.328 363.724 143.29 361.351 145.32C354.326 149.505 348.738 152.956 344.585 155.671C343.179 156.586 341.245 158.024 339.878 158.427C337.131 168.953 332.398 178.982 326.93 188.446C329.174 188.607 333.391 187.626 335.957 186.55C352.156 179.721 370.624 158.535 371.346 157.957C374.892 155.107 376.801 153.991 380.967 152.109C384.513 150.509 387.376 147.968 389.891 144.984C391.774 142.753 392.548 140.077 392.806 137.147C393.219 132.616 393.451 118.622 387.467 117.627H387.48Z" fill="#1E1C1F"/>
<path d="M377.034 273.796C366.91 260.702 354.439 249.854 340.034 242.178C332.231 238.024 323.681 234.703 317.206 228.358C310.139 221.449 313.866 212.603 316.858 204.416C316.858 204.416 316.858 204.403 316.858 204.389C318.367 200.249 320.095 196.149 322.068 192.21C322.842 190.677 323.178 188.809 324.841 188.392C329.819 178.431 334.617 168.348 337.944 157.769C336.925 156.303 338.447 153.615 338.886 151.8C343.18 134.283 340.408 117.654 333.263 101.563C330.838 96.0915 329.948 89.3565 332.541 83.7641C333.817 80.9814 335.907 78.7498 338.473 77.2173C341.929 75.174 345.773 75.5638 349.229 73.8028C352.195 72.2972 355.638 68.896 356.412 65.5621C359.959 50.116 358.759 40.9075 356.361 28.7414C353.807 15.7688 342.252 2.68867 327.369 0.457115C313.879 -1.5728 300.944 2.60801 295.991 21.0385C293.954 28.5936 295.295 38.8776 299.074 46.1637C305.032 57.671 305.174 65.5084 297.294 70.7378C294.689 72.4585 291.529 74.0313 288.008 76.0747C283.804 78.8977 279.883 82.1241 275.86 85.4176C266.613 89.827 258.54 93.7658 251.833 97.6105C224.505 113.272 219.862 127.333 252.104 165.095C255.032 168.187 258.114 172.072 259.894 176.387C261.428 180.124 261.996 184.184 260.642 188.365C257.998 197.063 249.383 200.168 243.631 205.236C242.457 206.164 241.374 207.145 240.368 208.18C233.817 214.902 230.592 223.909 230.399 233.695C229.896 253.403 217.889 267.357 207.288 282.306C205.741 284.483 204.219 286.701 202.774 288.946C200.169 294.041 197.461 299.472 194.649 304.621C194.469 305.119 194.275 305.603 194.108 306.1C190.729 312.929 187.531 320.78 180.592 325.445C173.796 328.321 166.857 330.943 160.602 334.532C154.709 338.256 148.518 343.418 144.378 350.22C142.057 354.051 138.742 361.203 135.995 366.123C131.353 374.458 126.194 382.726 119.049 388.95C115.799 391.786 109.196 397.446 105.43 399.476C101.935 401.358 94.3521 403.899 90.4703 404.584C83.6479 405.781 78.0895 411.292 79.3017 418.457C81.1847 429.602 84.757 436.31 85.6082 447.602C86.6141 461.045 92.379 470.778 102.645 478.239C104.837 479.839 108.745 480.807 111.389 479.153C112.936 478.185 112.794 476.895 112.085 475.349C105.289 460.534 108.732 446.419 115.477 432.922C115.541 432.801 115.593 432.707 115.632 432.627C115.825 431.887 116.251 430.005 116.276 429.508C117.295 425.246 121.706 415.056 139.632 401.035C153.109 390.563 167.192 381.059 179.457 369.067C180.541 368.005 187.853 361.203 198.686 354.078C207.327 348.392 216.625 341.428 225.215 334.505C239.543 322.944 251.872 311.491 255.857 306.275C257.83 303.68 259.778 301.072 261.725 298.464C265.542 293.329 269.321 288.14 273.087 282.964C275.963 279.025 279.161 277.963 283.765 279.953C302.388 287.979 320.818 296.461 340.691 304.151C326.028 309.555 315.104 329.988 308.45 341.509C298.055 359.469 292.69 368.543 274.273 378.155C273.255 378.693 272.507 378.464 271.681 378.142C270.753 377.94 269.798 377.604 268.87 377.416C268.16 377.335 267.438 377.335 266.677 377.402C266.664 377.402 266.639 377.402 266.626 377.402C265.646 377.483 264.691 377.685 263.763 377.98C263.556 396.048 265.065 411.884 267.4 429.992C267.799 433.084 269.747 435.745 272.416 437.157C277.601 439.899 283.843 443.757 290.317 446.822C289.801 444.725 289.156 442.642 288.64 440.652C284.333 429.441 291.852 417.396 292.135 406.507C294.212 401.922 296.933 396.612 300.028 392.7C308.127 380.279 317.929 372.576 332.915 363.126C341.362 357.802 349.332 351.928 356.954 345.381C368.754 335.258 383.65 325.808 390.769 311.195C395.283 301.946 390.498 292.146 384.656 283.811C382.077 280.128 379.304 276.74 377.021 273.796H377.034ZM291.4 152.795C291.4 152.795 291.323 152.821 291.284 152.821C291.117 152.391 291.142 152.351 291.4 152.795Z" fill="#1E1C1F"/>
<path d="M253.962 391.41C254.323 394.744 256.954 397.5 259.198 400.645C266.382 410.271 263.789 423.445 267.645 434.186C269.515 440.746 271.811 447.387 275.744 452.845C279.046 457.066 283.173 459.701 288.216 458.41C289.57 458.061 290.421 457.106 290.898 455.776C291.491 452.858 291.04 449.807 290.305 446.809C283.831 443.731 277.589 439.886 272.404 437.143C269.735 435.732 267.787 433.07 267.387 429.978C265.053 411.87 263.544 396.048 263.751 377.967C258.05 379.809 253.485 385.522 253.962 391.423V391.41Z" fill="#1E1C1F"/>
<path d="M291.283 152.82C291.283 152.82 291.36 152.793 291.399 152.793C291.142 152.365 291.116 152.391 291.283 152.82Z" fill="#1E1C1F"/>
<path d="M194.095 306.1C194.263 305.602 194.456 305.105 194.637 304.621C189.285 314.448 183.533 323.253 177.317 326.668C177.317 326.668 169.256 329.061 160.59 334.545C166.845 330.956 173.783 328.335 180.58 325.458C187.518 320.793 190.716 312.942 194.095 306.113V306.1Z" fill="#1E1C1F"/>
<path d="M215.541 343.781C218.765 341.576 222.002 339.304 225.201 336.979C225.201 336.495 225.188 336.011 225.201 335.513C221.989 338.283 218.752 341.025 215.554 343.781H215.541Z" fill="#1E1C1F"/>
<path d="M268.857 377.375C269.799 377.563 270.753 377.9 271.669 378.101C271.527 378.047 271.385 377.994 271.23 377.926C270.495 377.644 269.696 377.456 268.857 377.375Z" fill="#1E1C1F"/>
<path d="M263.75 377.953C264.679 377.658 265.646 377.442 266.613 377.375C266.626 377.375 266.652 377.375 266.665 377.375C265.71 377.456 264.73 377.631 263.75 377.926C263.75 377.94 263.75 377.953 263.75 377.98V377.953Z" fill="#1E1C1F"/>
<path d="M290.898 455.776C291.698 453.584 291.491 450.358 290.937 447.105C290.73 447.011 290.524 446.903 290.305 446.809C291.04 449.807 291.491 452.859 290.898 455.776Z" fill="#1E1C1F"/>
<path d="M324.854 188.392C322.185 193.742 319.463 199.052 316.871 204.389C316.871 204.389 316.871 204.389 316.871 204.403C320.315 199.294 323.758 193.971 326.943 188.459C326.763 188.459 326.595 188.432 326.44 188.405C325.808 188.284 325.293 188.298 324.867 188.405L324.854 188.392Z" fill="#1E1C1F"/>
</g>
<defs>
<clipPath id="clip0_626_1185">
<rect width="393" height="480" fill="white"/>
</clipPath>
</defs>
</svg>
