<svg width="744" height="1258" viewBox="0 0 744 1258" fill="none" xmlns="http://www.w3.org/2000/svg">
<g clip-path="url(#clip0_1052_2)">
<mask id="path-1-inside-1_1052_2" fill="white">
<path d="M290 -2H744V1258H290V-2Z"/>
</mask>
<path d="M290 -2H744V1258H290V-2Z" fill="#FF0000"/>
<path d="M741 -2V1258H747V-2H741Z" fill="black" mask="url(#path-1-inside-1_1052_2)"/>
<mask id="path-3-inside-2_1052_2" fill="white">
<path d="M-2 298C-2 132.315 132.315 -2 298 -2H438C603.685 -2 738 132.315 738 298V958C738 1123.69 603.685 1258 438 1258H298C132.315 1258 -2 1123.69 -2 958V298Z"/>
</mask>
<path d="M-2 298C-2 132.315 132.315 -2 298 -2H438C603.685 -2 738 132.315 738 298V958C738 1123.69 603.685 1258 438 1258H298C132.315 1258 -2 1123.69 -2 958V298Z" fill="#FF0000"/>
<path d="M-5 298C-5 130.658 130.658 -5 298 -5H435C602.342 -5 738 130.658 738 298C738 133.971 603.685 1 438 1H298C133.971 1 1 133.971 1 298H-5ZM738 958C738 1125.34 602.342 1261 435 1261H298C130.658 1261 -5 1125.34 -5 958H1C1 1122.03 133.971 1255 298 1255H438C603.685 1255 738 1122.03 738 958ZM298 1261C130.658 1261 -5 1125.34 -5 958V298C-5 130.658 130.658 -5 298 -5V1C133.971 1 1 133.971 1 298V958C1 1122.03 133.971 1255 298 1255V1261ZM738 -2V1258V-2Z" fill="black" mask="url(#path-3-inside-2_1052_2)"/>
<mask id="path-5-inside-3_1052_2" fill="white">
<path d="M31 335C31 169.315 165.315 35 331 35H418C583.685 35 718 169.315 718 335V915C718 1080.69 583.685 1215 418 1215H331C165.315 1215 31 1080.69 31 915V335Z"/>
</mask>
<path d="M31 335C31 169.315 165.315 35 331 35H418C583.685 35 718 169.315 718 335V915C718 1080.69 583.685 1215 418 1215H331C165.315 1215 31 1080.69 31 915V335Z" fill="#FF0000"/>
<path d="M331 38H418V32H331V38ZM715 335V915H721V335H715ZM418 1212H331V1218H418V1212ZM34 915V335H28V915H34ZM331 1212C166.971 1212 34 1079.03 34 915H28C28 1082.34 163.658 1218 331 1218V1212ZM715 915C715 1079.03 582.029 1212 418 1212V1218C585.342 1218 721 1082.34 721 915H715ZM418 38C582.029 38 715 170.971 715 335H721C721 167.658 585.342 32 418 32V38ZM331 32C163.658 32 28 167.658 28 335H34C34 170.971 166.971 38 331 38V32Z" fill="white" mask="url(#path-5-inside-3_1052_2)"/>
<rect x="58.5" y="61.5" width="625" height="1117" rx="298.5" fill="#7260DC" stroke="white" stroke-width="3"/>
<rect x="87.5" y="96.5" width="560" height="1064" rx="280" fill="#FF0000" stroke="white" stroke-width="3"/>
<rect x="119.5" y="121.5" width="497" height="997" rx="248.5" fill="#FF0000" stroke="white" stroke-width="3"/>
<rect x="144.5" y="151.5" width="447" height="937" rx="223.5" fill="#FF0000" stroke="white" stroke-width="3"/>
<rect x="169.5" y="186.5" width="397" height="877" rx="198.5" fill="#FF0000" stroke="white" stroke-width="3"/>
<path d="M15.6459 293.017C15.5329 292.597 15.2793 292.295 14.885 292.111C14.4907 291.928 14.0322 291.874 13.5093 291.95C13.127 292.006 12.8015 292.117 12.5328 292.282C12.2669 292.447 12.0697 292.65 11.941 292.89C11.8152 293.129 11.7723 293.387 11.8125 293.662C11.8462 293.893 11.9299 294.083 12.0638 294.233C12.2 294.379 12.3633 294.495 12.5535 294.579C12.7434 294.66 12.9391 294.722 13.1405 294.765C13.3415 294.804 13.5252 294.833 13.6916 294.852L14.6031 294.96C14.8366 294.986 15.0987 295.031 15.3894 295.095C15.6828 295.159 15.9692 295.262 16.2485 295.405C16.5301 295.545 16.7742 295.742 16.9806 295.996C17.1871 296.25 17.3199 296.579 17.3789 296.984C17.447 297.451 17.3863 297.89 17.1967 298.303C17.0099 298.715 16.6994 299.066 16.2651 299.356C15.8337 299.646 15.2863 299.839 14.6228 299.936C14.0044 300.026 13.4543 300.004 12.9726 299.871C12.4937 299.737 12.0989 299.51 11.7881 299.191C11.4802 298.871 11.275 298.478 11.1723 298.01L12.2518 297.853C12.3275 298.175 12.4765 298.429 12.6988 298.614C12.9236 298.797 13.1911 298.919 13.5014 298.98C13.8142 299.037 14.142 299.041 14.485 298.991C14.8842 298.933 15.2332 298.816 15.532 298.64C15.8303 298.462 16.0553 298.242 16.2068 297.982C16.3578 297.719 16.4104 297.43 16.3645 297.115C16.3226 296.828 16.2085 296.607 16.022 296.45C15.8355 296.293 15.6033 296.178 15.3255 296.104C15.0476 296.029 14.7508 295.972 14.4349 295.932L13.3279 295.784C12.625 295.688 12.0504 295.489 11.6044 295.187C11.1583 294.884 10.8928 294.442 10.8079 293.86C10.7374 293.377 10.8066 292.936 11.0155 292.538C11.2268 292.137 11.54 291.804 11.955 291.54C12.3725 291.272 12.8567 291.098 13.4077 291.018C13.9643 290.936 14.4736 290.964 14.9356 291.1C15.3973 291.234 15.7796 291.454 16.0826 291.76C16.3885 292.066 16.5803 292.435 16.6579 292.869L15.6459 293.017ZM19.4404 299.078L18.1803 290.442L21.0983 290.016C21.7757 289.917 22.3474 289.959 22.8132 290.141C23.2814 290.319 23.6496 290.6 23.9179 290.983C24.1863 291.366 24.3575 291.811 24.4318 292.32C24.506 292.829 24.4695 293.307 24.3222 293.753C24.1777 294.199 23.9084 294.577 23.5144 294.887C23.12 295.195 22.5869 295.397 21.915 295.495L19.8235 295.801L19.6881 294.873L21.7459 294.573C22.2097 294.505 22.5705 294.37 22.8283 294.169C23.086 293.968 23.2582 293.722 23.3449 293.431C23.434 293.136 23.4534 292.816 23.4029 292.47C23.3525 292.125 23.2427 291.825 23.0736 291.571C22.9073 291.317 22.6709 291.133 22.3644 291.02C22.0575 290.904 21.6693 290.88 21.1999 290.949L19.3614 291.217L20.4862 298.925L19.4404 299.078ZM26.9778 297.978L25.7177 289.342L26.7634 289.189L27.8882 296.898L31.9025 296.312L32.0378 297.239L26.9778 297.978ZM33.4427 288.215L34.7028 296.851L33.657 297.003L32.3969 288.367L33.4427 288.215ZM35.2025 288.905L35.0672 287.978L41.544 287.033L41.6794 287.96L38.9638 288.357L40.0886 296.065L39.0428 296.217L37.9181 288.509L35.2025 288.905ZM49.3818 285.889L50.6419 294.525L49.5962 294.677L48.4961 287.138L48.4455 287.145L46.5414 288.853L46.3863 287.79L48.3361 286.042L49.3818 285.889ZM55.9596 293.869C55.3243 293.962 54.7579 293.868 54.2605 293.588C53.7626 293.304 53.3474 292.85 53.0149 292.223C52.682 291.594 52.447 290.81 52.31 289.872C52.1738 288.938 52.1756 288.124 52.3153 287.429C52.4575 286.731 52.7266 286.175 53.1227 285.761C53.5212 285.344 54.0353 285.089 54.665 284.998C55.2947 284.906 55.8587 285.003 56.3569 285.289C56.8576 285.572 57.2744 286.028 57.6073 286.657C57.9426 287.283 58.1784 288.062 58.3146 288.995C58.4516 289.934 58.4504 290.753 58.3111 291.451C58.1714 292.146 57.9034 292.7 57.5073 293.114C57.1108 293.525 56.5949 293.777 55.9596 293.869ZM55.8242 292.942C56.4539 292.85 56.8987 292.475 57.1587 291.817C57.4187 291.159 57.4667 290.268 57.3026 289.143C57.1935 288.395 57.0204 287.77 56.7835 287.268C56.5494 286.765 56.2632 286.398 55.925 286.166C55.5897 285.933 55.214 285.848 54.7979 285.908C54.1738 285.999 53.731 286.378 53.4695 287.045C53.2075 287.709 53.1583 288.602 53.322 289.724C53.4311 290.472 53.6025 291.096 53.8363 291.595C54.07 292.095 54.3543 292.46 54.6893 292.69C55.027 292.919 55.4054 293.003 55.8242 292.942ZM63.381 292.787C62.7457 292.879 62.1793 292.785 61.6819 292.505C61.184 292.221 60.7689 291.767 60.4363 291.141C60.1034 290.512 59.8684 289.728 59.7314 288.789C59.5952 287.855 59.597 287.041 59.7367 286.346C59.8789 285.648 60.148 285.092 60.5441 284.678C60.9426 284.261 61.4567 284.006 62.0864 283.915C62.7161 283.823 63.2801 283.92 63.7783 284.206C64.279 284.489 64.6958 284.945 65.0287 285.574C65.364 286.2 65.5998 286.979 65.736 287.912C65.873 288.851 65.8718 289.67 65.7325 290.368C65.5928 291.063 65.3248 291.617 64.9287 292.031C64.5322 292.442 64.0163 292.694 63.381 292.787ZM63.2456 291.859C63.8753 291.767 64.3202 291.392 64.5801 290.734C64.8401 290.076 64.8881 289.185 64.724 288.06C64.6149 287.312 64.4418 286.687 64.2049 286.185C63.9708 285.682 63.6846 285.315 63.3464 285.083C63.0111 284.851 62.6354 284.765 62.2193 284.825C61.5952 284.916 61.1524 285.295 60.8909 285.962C60.6289 286.626 60.5797 287.519 60.7434 288.641C60.8525 289.389 61.0239 290.013 61.2577 290.512C61.4914 291.012 61.7757 291.377 62.1107 291.607C62.4484 291.836 62.8268 291.92 63.2456 291.859ZM66.8601 283.339L68.1082 283.156L72.0891 289.897L72.1903 289.882L74.0791 282.285L75.3272 282.103L76.5874 290.739L75.6091 290.882L74.6517 284.32L74.5673 284.333L72.8261 291.288L71.8815 291.426L68.2254 285.258L68.1411 285.27L69.0985 291.832L68.1202 291.974L66.8601 283.339Z" fill="black"/>
<rect x="193" y="301" width="319" height="624" rx="20" fill="#A9A942"/>
<line x1="565" y1="356.5" x2="741" y2="356.5" stroke="white" stroke-width="3"/>
<line x1="565.002" y1="430.289" x2="741.002" y2="430.5" stroke="white" stroke-width="3"/>
<line x1="649" y1="869.5" x2="744" y2="869.5" stroke="white" stroke-width="3"/>
<line x1="644" y1="623.5" x2="739" y2="623.5" stroke="white" stroke-width="3"/>
<rect x="519" y="394" width="39" height="104" fill="#FFC700"/>
<mask id="path-19-inside-4_1052_2" fill="white">
<path d="M523 508H550V817H523V508Z"/>
</mask>
<path d="M548 508V817H552V508H548ZM525 817V508H521V817H525Z" fill="white" mask="url(#path-19-inside-4_1052_2)"/>
<line x1="3.41372" y1="306.453" x2="207.726" y2="268.525" stroke="white" stroke-width="3"/>
<line x1="-33.2738" y1="923.453" x2="171.039" y2="885.525" stroke="white" stroke-width="3"/>
<line x1="536.032" y1="968.5" x2="743.788" y2="972.902" stroke="white" stroke-width="3"/>
</g>
<defs>
<clipPath id="clip0_1052_2">
<rect width="744" height="1258" fill="white"/>
</clipPath>
</defs>
</svg>
