<svg width="378" height="299" viewBox="0 0 378 299" fill="none" xmlns="http://www.w3.org/2000/svg">
<path d="M127.598 111.881L131.768 128.573H144.693V128.624H153.906V189.305H166.836H183.376H223.652H240.192V128.624H263.021V128.573V111.932V111.881H127.598Z" fill="#D12F28"/>
<path d="M207.976 187.665C207.642 187.31 207.045 187.24 206.61 187.113C204.981 186.649 203.286 185.518 201.985 184.812C201.538 184.571 201.216 184.113 201.144 183.586C200.714 180.174 200.452 177.238 200.553 173.737C200.619 171.571 200.649 170.363 200.589 167.784C200.577 167.218 200.637 164.956 200.535 164.098C200.338 162.243 200.434 162.027 200.028 160.394C199.897 159.765 199.748 159.18 199.646 158.697C198.775 154.586 198.28 150.329 196.615 145.672C197.009 143.035 197.952 140.62 198.322 139.686C198.889 139.496 199.217 140.093 199.813 140.265C201.102 140.633 202.379 141.04 203.656 141.459C205.148 141.948 205.959 141.415 205.953 139.756C205.953 139.146 206.049 139.006 206.383 139.121C205.506 137.145 204.963 135.931 205.154 136.262C204.175 136.522 201.156 137.227 198.692 136.833C198.692 136.821 198.71 136.77 198.733 136.687C198.763 136.592 198.805 136.509 198.829 136.389C198.847 136.287 198.865 136.185 198.883 136.084C199.211 134.654 199.784 131.502 199.127 129.031C198.501 126.661 197.892 124.729 198.059 123.865C198.292 124.03 198.894 124.119 199.056 124.113C200.04 124.043 200.368 123.191 200.655 122.378C201.645 119.563 201.568 116.717 200.04 113.902C199.038 112.059 197.761 111.068 195.971 111.246C193.53 111.494 192.062 112.911 191.866 114.95C191.77 115.941 191.15 116.456 190.398 116.005C188.399 114.791 186.513 116.825 184.759 115.217C184.681 115.56 184.729 115.84 184.86 116.177C180.332 117.098 179.86 121.056 179.86 121.056C179.86 121.056 181.227 119.322 182.623 119.201C179.687 121.851 179.974 124.964 180.314 126.781C180.552 126.553 181.334 124.469 186.704 124.221C186.621 124.221 186.137 124.786 186.078 124.843C186.251 124.818 186.698 124.723 186.835 124.691C187.098 124.627 187.355 124.557 187.611 124.475C189.431 123.859 190.893 122.168 191.466 120.249C191.687 119.506 191.8 118.725 191.788 117.943L192.092 117.708C192.092 117.708 192.092 118.42 192.516 119.538C192.761 120.186 193.763 121.597 193.763 121.597C193.745 122.289 193.572 122.937 193.148 123.496C192.611 124.214 191.812 124.602 191.048 124.983C191.048 124.983 190.177 125.39 189.091 125.879C188.13 126.311 186.668 127.093 185.869 127.69C184.944 128.383 183.971 129.298 183.464 130.244C183.166 130.803 182.844 131.337 183.399 131.877C184.872 133.307 186.794 135.353 188.703 136.103C188.691 136.255 188.679 141.586 187.474 143.175C187.211 143.524 186.424 143.842 186.018 144.045C185.451 144.331 185.022 144.706 184.64 145.157C184.061 145.837 183.733 146.72 183.53 147.61C183.333 148.493 183.506 149.465 183.226 150.31C183.106 150.672 182.951 151.028 182.796 151.378C182.521 151.988 182.217 152.572 181.931 153.176C181.227 154.656 180.69 156.207 180.272 157.802C179.705 159.968 178.53 160.356 176.751 159.39C176.417 159.155 174.711 158.094 174.675 158.068C171.674 156.359 166.578 156.448 166.339 155.851C165.826 154.104 164.752 153.608 163.237 154.466C162.353 154.968 162.019 155.686 160.73 156.518C160.056 156.95 158.427 156.836 156.894 159.041C156.076 160.216 156.607 160.68 156.876 160.934C157.258 161.296 158.045 161.163 158.893 160.712C159.776 160.235 161.273 159.949 162.258 159.905C162.747 159.886 163.093 159.949 163.254 159.841C164.012 159.339 166.089 159.644 168.129 161.036C171.304 163.202 174.908 164.683 178.374 166.233C180.123 167.015 181.137 166.684 182.319 165.204C184.693 162.23 187.695 160.629 189.425 157.122C189.992 155.972 189.992 156.175 190.577 157.344C192.534 161.245 192.802 161.093 193.781 162.802C193.954 163.107 194.097 163.654 194.091 164.016C194.079 164.905 194.121 166.074 194.091 166.958C194.008 169.614 194.479 171.342 195.314 173.903C195.995 175.98 197.128 178.56 197.355 180.765C197.462 181.788 197.665 182.805 197.63 183.84C197.612 184.361 197.534 184.882 197.361 185.378C197.182 185.899 196.872 186.28 196.633 186.763C196.347 187.348 196.4 187.875 196.687 188.441C196.729 188.523 196.973 188.796 197.033 188.873C197.331 189.248 198.793 189.356 199.778 189.413C201.025 189.483 202.164 189.495 203.346 189.94C204.199 190.264 205.172 190.29 206.049 190.074C206.502 189.966 206.944 189.788 207.332 189.514C207.63 189.305 208.107 188.987 208.233 188.402C208.292 188.123 208.137 187.831 207.964 187.64L207.976 187.665Z" fill="white"/>
<path d="M220.742 158.64C220.312 158.011 219.847 157.433 219.465 156.931C217.771 154.695 215.688 152.846 213.284 151.537C211.983 150.831 210.551 150.259 209.471 149.179C208.289 147.997 208.91 146.492 209.411 145.094C209.662 144.388 209.954 143.683 210.282 143.01C210.443 142.679 210.491 142.26 211.01 142.355C211.356 142.419 212.138 142.241 212.603 142.044C215.312 140.875 218.397 137.259 218.516 137.164C219.107 136.681 219.429 136.484 220.128 136.166C220.718 135.893 221.202 135.461 221.619 134.946C221.935 134.565 222.067 134.108 222.109 133.612C222.174 132.837 222.216 130.448 221.213 130.282C220.981 130.244 220.754 130.384 220.557 130.53C220.08 130.873 219.626 131.248 219.185 131.642C219.113 131.706 218.988 131.763 218.946 131.674C218.922 131.63 218.946 131.579 218.958 131.534C219.101 131.153 219.823 130.136 219.411 129.749C219.316 129.66 219.173 129.66 219.059 129.717C218.946 129.774 218.857 129.869 218.767 129.965C218.093 130.721 217.257 131.655 217.257 132.773C217.269 133.186 217.269 133.447 217.341 133.847C217.425 134.324 217.246 134.66 216.852 135.004C215.678 135.719 214.743 136.308 214.047 136.77C213.737 136.973 213.278 137.335 213.081 137.246C212.669 137.056 213.009 136.478 213.099 136.109C213.815 133.116 213.349 130.276 212.156 127.531C211.75 126.597 211.601 125.447 212.036 124.494C212.251 124.017 212.597 123.636 213.027 123.376C213.606 123.026 214.244 123.096 214.823 122.791C215.318 122.537 215.897 121.952 216.022 121.381C216.613 118.744 216.416 117.168 216.016 115.096C215.593 112.885 213.659 110.649 211.171 110.267C208.916 109.924 206.756 110.636 205.926 113.781C205.586 115.071 205.813 116.825 206.44 118.07C207.436 120.034 207.46 121.374 206.141 122.264C205.252 122.867 203.963 123.357 202.573 124.672C200.914 125.657 195.407 127.048 194.715 130.213C194.023 133.377 197.961 138.505 198.832 139.197C199.709 139.89 200.837 142.184 198.122 143.905C195.407 145.621 194.721 147.591 194.607 149.726C194.494 151.861 194.19 154.459 192.411 156.15C190.633 157.84 188.593 164.556 186.093 165.96C186.093 165.96 182.298 167.11 180.585 169.982C180.197 170.637 179.642 171.857 179.183 172.695C178.407 174.119 177.542 175.529 176.349 176.59C175.806 177.073 174.702 178.039 174.075 178.389C173.491 178.713 172.226 179.145 171.575 179.259C170.436 179.462 169.505 180.403 169.708 181.629C170.024 183.529 170.621 184.679 170.764 186.604C170.931 188.898 171.897 190.563 173.61 191.834C173.98 192.107 174.63 192.272 175.072 191.986C175.328 191.821 175.305 191.599 175.191 191.338C174.057 188.809 174.63 186.401 175.758 184.094C175.925 183.751 175.686 184.393 175.776 184.075C175.8 183.986 175.889 183.605 175.895 183.51C176.062 182.779 176.802 181.045 179.798 178.649C182.053 176.864 184.404 175.237 186.451 173.191C186.63 173.007 187.853 171.85 189.667 170.63C193.521 168.044 198.158 163.895 199.22 162.465C200.198 161.157 201.147 159.822 202.102 158.488C202.579 157.814 203.116 157.636 203.886 157.973C207 159.346 210.079 160.794 213.397 162.103C210.945 163.025 209.119 166.513 208.009 168.483C206.272 171.552 205.371 173.102 202.299 174.741C202.096 174.849 201.958 174.773 201.791 174.71C200.855 174.335 199.249 174.945 198.844 176.451C198.522 177.652 199.434 178.255 199.93 179.176C200.735 180.663 200.365 181.553 200.908 183.637C201.314 185.206 202.472 189.012 204.626 188.447C205.724 188.161 204.828 185.461 204.649 184.704C204.333 183.364 205.419 180.854 205.348 179.602C206.977 175.93 208.773 174.316 212.102 172.174C213.516 171.266 214.847 170.262 216.118 169.144C218.093 167.415 220.581 165.801 221.768 163.304C222.52 161.722 221.721 160.051 220.748 158.628L220.742 158.64Z" fill="white"/>
<path d="M205.654 122.518C204.502 123.077 203.53 123.897 202.521 124.697C200.385 126.013 197.813 126.616 195.964 128.44C192.753 131.522 196.25 135.976 198.416 138.536C200.003 140.131 200.654 142.393 198.547 143.88C192.676 147.432 196.345 150.939 192.736 155.679C191.047 157.668 189.764 159.911 188.75 162.364C188.201 163.558 187.658 164.867 186.572 165.63C185.456 166.284 184.209 166.494 183.141 167.244C182.073 167.917 181.19 168.908 180.527 170.039C181.16 168.896 182.019 167.873 183.087 167.155C184.113 166.392 185.414 166.106 186.458 165.452C188.38 163.838 188.833 160.794 190.2 158.666C191.435 156.385 193.553 154.65 194.054 151.962C194.4 150.666 194.257 149.319 194.603 148.01C195.075 145.97 196.686 144.522 198.309 143.524C200.23 142.177 199.544 140.252 198.136 138.797C197.294 137.806 196.483 136.77 195.797 135.639C194.359 133.434 193.487 130.168 195.791 128.224C197.7 126.387 200.272 125.854 202.467 124.602C203.476 123.84 204.496 123.026 205.654 122.512V122.518Z" fill="#D12F28"/>
<path d="M202.242 158.456C200.1 162.923 196.257 166.062 192.48 168.883C196.096 165.916 199.927 162.72 202.242 158.456Z" fill="#D12F28"/>
<path d="M204.335 173.305C203.726 173.801 203.058 174.239 202.378 174.614C201.966 174.888 201.483 174.417 201.017 174.538C199.848 174.621 198.69 175.739 198.786 177.029C198.851 177.658 199.311 178.141 199.675 178.668C200.856 180.301 200.45 182.493 201.113 184.342C201.65 185.982 202.372 188.568 204.311 188.644C206.083 188.561 204.645 185.499 204.579 184.419C204.496 182.76 205.343 181.216 205.361 179.583C205.773 178.655 206.274 177.671 206.865 176.902C206.334 177.715 205.827 178.783 205.463 179.57C205.463 181.222 204.675 182.754 204.723 184.406C204.8 185.537 206.185 188.644 204.317 188.714C202.318 188.587 201.584 186.064 200.993 184.38C200.289 182.57 200.701 180.384 199.537 178.776C199.191 178.262 198.696 177.766 198.613 177.048C198.499 175.631 199.752 174.481 201.005 174.405C201.501 174.297 201.972 174.76 202.336 174.525C203.022 174.182 203.72 173.712 204.335 173.305Z" fill="#D12F28"/>
<path d="M213.668 133.282C213.776 137.659 211.556 141.523 209.414 145.081C211.341 141.389 213.543 137.628 213.668 133.282Z" fill="#D12F28"/>
<path d="M219.377 56.7984C218.816 57.4655 218.237 58.0692 217.623 58.6474C213.321 62.7775 208.219 64.887 202.372 64.887C189.036 64.887 179.548 54.6888 179.548 40.0683C179.548 25.4478 189.036 15.2814 202.372 15.2814C205.373 15.2814 208.189 15.8278 210.767 16.927C214.222 18.344 217.301 20.7394 220.016 24.0372L226.239 8.73674C225.845 8.39363 225.445 8.06322 225.04 7.74552C218.768 2.71951 210.719 0 201.554 0C179.369 0 162.871 16.7301 162.871 40.0746C162.871 63.4192 179.369 80.1747 201.447 80.1747C210.946 80.1747 219.198 77.3345 225.535 71.9908L219.377 56.8047V56.7984Z" fill="white"/>
<path d="M139.821 62.2248H117.904L112.027 48.6082L100.422 78.8341H83.5234L115.285 1.32806H131.574L163.443 78.8278H146.134L139.821 62.2184V62.2248ZM134.63 48.6082L123.328 18.935L112.027 48.6082H134.63Z" fill="white"/>
<path d="M294.474 64.436V78.8278H245.845L239.293 62.7966V1.32806H293.15V15.7262H255.684V32.558H286.115V46.505H261.281L255.684 32.558V64.4423H294.474V64.436Z" fill="white"/>
<path d="M202.408 221.672H218.865V284.412H248.466L254.517 298.994H208.99L202.402 281.698V221.672H202.408Z" fill="white"/>
<path d="M308.658 284.634V298.994H260.141L253.602 281.698V221.672H307.339V236.032H269.957V252.826H300.316V266.741H275.536L269.951 252.826V284.64H308.652L308.658 284.634Z" fill="white"/>
<path d="M168.395 221.672H184.869V298.994H168.395V221.672Z" fill="white"/>
<path d="M134.122 298.993L134.021 252.603L113.071 290.822H105.648L84.8 253.601V299H69.3398V221.678H82.9681L109.616 269.727L135.852 221.678H149.379L149.582 299H134.128L134.122 298.993Z" fill="white"/>
<path d="M65.3669 169.029C65.3669 182.424 55.5932 190.176 36.8572 190.176H7.05879L0 172.842V112.676H34.8225C52.6396 112.676 61.8046 120.758 61.8046 132.824C61.8046 140.576 58.141 146.555 52.3353 149.872C60.2771 152.643 65.3669 159.282 65.3669 169.023V169.029ZM16.3909 126.184V144.452H32.7819C40.8252 144.452 45.2049 141.351 45.2049 135.264C45.2049 129.177 40.8252 126.184 32.7819 126.184H16.3909ZM48.7671 167.149C48.7671 160.617 44.1845 157.516 35.634 157.516H22.0236L16.3909 144.452V176.667H35.634C44.1845 176.667 48.7671 173.789 48.7671 167.142V167.149Z" fill="white"/>
<path d="M124.809 172.48H102.893L97.0154 158.863L85.4098 189.089H68.5117L100.279 111.589H116.569L148.438 189.089H131.128L124.815 172.48H124.809ZM119.618 158.863L108.317 129.19L97.0154 158.863H119.618Z" fill="white"/>
<path d="M272.137 111.589H288.629V174.475H318.302L324.365 189.089H278.736L272.137 173.058V111.589Z" fill="white"/>
<path d="M377.998 174.69V189.082H329.368L322.816 173.051V111.582H376.673V125.974H339.207V142.806H369.638V156.753H344.804L339.207 142.806V174.69H377.998Z" fill="white"/>
</svg>
