<svg width="320" height="130" viewBox="0 0 320 130" fill="none" xmlns="http://www.w3.org/2000/svg">
<g clip-path="url(#clip0_834_3)">
<path d="M291.733 119.991L291.607 53.9946L265.499 108.366H256.248L230.267 55.4144V120H211V10H227.984L261.193 78.3556L293.889 10H310.747L311 120H291.741L291.733 119.991Z" fill="white"/>
<g filter="url(#filter0_d_834_3)">
<path d="M35.2092 30.9417C30.7 42.3987 21.1932 66.6978 14.0161 84.9535C6.87647 103.167 0.78911 118.737 0.52608 119.492L0 120.835L11.4984 120.751L22.9969 120.625L24.0114 117.897C25.5521 113.827 32.8043 93.9764 37.3511 81.5961C39.5305 75.5948 42.0106 68.88 42.7997 66.6978C46.4446 56.8355 53.6217 37.0269 53.8472 36.1456C53.9975 35.642 54.2229 35.2223 54.3732 35.2223C54.5235 35.2223 55.8387 38.5797 57.3418 42.6925C60.2352 50.7082 66.811 68.7122 68.6899 73.8322C69.3287 75.5528 69.8547 77.1056 69.8547 77.2735C69.8547 77.4833 63.0158 77.6092 54.6363 77.6092C42.7245 77.6092 39.4178 77.7351 39.4178 78.1128C39.4178 78.4066 41.1087 82.7292 43.1379 87.6814L46.8579 96.7043L61.9261 96.8302L76.9943 96.9141L77.8585 99.1384C78.347 100.313 80.301 105.727 82.255 111.057L85.7872 120.835H97.5483H109.31L108.784 119.492C108.22 117.981 104.35 108.161 95.9703 86.842C92.9263 79.12 89.2066 69.6774 87.7036 65.8584C80.301 47.0151 72.936 28.2138 69.5541 19.6945L65.8341 10.2518L54.5987 10.1679L43.3633 10.042L35.2092 30.9417Z" fill="white"/>
<path d="M113.441 53.2262V96.4524L115.545 101.824C118.476 109.252 121.107 116.009 122.121 118.653L122.948 120.877L147.974 120.709C167.927 120.541 173.639 120.416 176.194 119.912C192.164 116.764 200.882 108.413 202.497 94.6478C203.324 87.9751 202.009 80.7147 199.078 75.259C196.598 70.7265 191.45 66.0262 187.016 64.2636C186.001 63.8859 185.212 63.4242 185.212 63.2564C185.212 63.0885 186.189 62.2072 187.392 61.2839C194.794 55.7023 198.852 45.4623 197.65 35.4741C196.823 28.3816 194.343 23.2196 189.834 19.0649C186.79 16.2531 184.047 14.6164 179.538 12.9377C172.624 10.3357 172.699 10.3777 141.736 10.1678L113.441 10V53.2262ZM163.305 29.3468C168.566 30.1023 172.549 32.7462 174.428 36.6911C175.067 38.0341 175.217 39.1252 175.254 42.1468C175.254 46.6793 174.39 49.1134 171.948 51.3377C167.777 55.0728 165.86 55.4505 149.477 55.7442L136.1 55.996L139.745 64.8091L143.39 73.6223L155.189 73.8741C161.952 74.0419 167.927 74.3777 169.242 74.6714C176.87 76.3921 180.703 81.4282 180.252 89.1082C179.914 94.9836 177.246 98.4249 171.534 100.565L168.491 101.698L152.07 101.866L135.611 102.034V65.4806V28.9272H148.124C154.963 28.9272 161.802 29.137 163.305 29.3468Z" fill="#FF0000"/>
</g>
</g>
<defs>
<filter id="filter0_d_834_3" x="-4" y="10" width="210.742" height="118.877" filterUnits="userSpaceOnUse" color-interpolation-filters="sRGB">
<feFlood flood-opacity="0" result="BackgroundImageFix"/>
<feColorMatrix in="SourceAlpha" type="matrix" values="0 0 0 0 0 0 0 0 0 0 0 0 0 0 0 0 0 0 127 0" result="hardAlpha"/>
<feOffset dy="4"/>
<feGaussianBlur stdDeviation="2"/>
<feComposite in2="hardAlpha" operator="out"/>
<feColorMatrix type="matrix" values="0 0 0 0 0 0 0 0 0 0 0 0 0 0 0 0 0 0 0.25 0"/>
<feBlend mode="normal" in2="BackgroundImageFix" result="effect1_dropShadow_834_3"/>
<feBlend mode="normal" in="SourceGraphic" in2="effect1_dropShadow_834_3" result="shape"/>
</filter>
<clipPath id="clip0_834_3">
<rect width="320" height="130" fill="white"/>
</clipPath>
</defs>
</svg>
