<svg width="58" height="80" viewBox="0 0 58 80" fill="none" xmlns="http://www.w3.org/2000/svg">
<path d="M56.478 59.5966C56.4995 59.5345 56.5181 59.4711 56.5345 59.4066C57.2936 56.8337 57.7031 54.1123 57.7031 51.2969C57.7031 44.3345 55.2106 37.9441 51.072 32.9688C50.9786 32.8306 50.8714 32.7048 50.753 32.5916C45.9637 27.0297 39.0828 23.3184 31.3437 22.6902V17.2397H47.8281C47.8291 17.2397 47.8301 17.2395 47.8312 17.2397C49.1256 17.2397 50.175 16.1903 50.175 14.8959C50.175 14.212 49.8822 13.5966 49.4148 13.168L44.8666 8.61984L49.4855 4.00094C50.1558 3.33063 50.3564 2.32266 49.9936 1.44672C49.6306 0.570937 48.7759 0 47.8281 0H29C27.7056 0 26.6562 1.04937 26.6562 2.34375V14.8959V22.6902C26.6439 22.6911 26.6316 22.6923 26.6192 22.6934C26.5839 22.6956 26.5487 22.6992 26.5134 22.703C11.8466 23.9675 0.296875 36.3078 0.296875 51.2969C0.296875 67.1239 13.173 80 28.9998 80C30.6131 80 32.195 79.8641 33.7366 79.6069C33.7392 79.6064 33.7419 79.6061 33.7444 79.6056C44.5651 77.798 53.3547 69.9169 56.478 59.5966ZM38.1358 73.5055C38.6206 72.0231 38.8748 70.4613 38.8748 68.8698C38.8748 60.6564 32.1926 53.9741 23.9791 53.9741H17.7031C16.227 53.9741 15.0261 52.7731 15.0261 51.2969C15.0261 49.8206 16.2269 48.6198 17.7031 48.6198C25.9167 48.6198 32.5989 41.9375 32.5989 33.7239C32.5989 31.5 32.1083 29.3439 31.1841 27.3817C36.5337 27.8664 41.3833 30.1111 45.1448 33.5328C43.5137 34.5228 42.067 35.8222 40.9194 37.3547C38.9789 39.9461 37.9531 43.0309 37.9531 46.2761C37.9531 53.8442 43.6266 60.1122 50.9437 61.0505C48.4369 66.6683 43.8345 71.1523 38.1358 73.5055ZM52.4519 56.4742C47.0064 56.2645 42.6405 51.7716 42.6405 46.2761C42.6405 42.3067 44.8844 38.7919 48.3591 37.1027C51.2845 41.0819 53.0156 45.9906 53.0156 51.2969C53.0156 53.0741 52.8198 54.8061 52.4519 56.4742ZM31.3437 4.6875H42.1697L39.8947 6.96266C39.4552 7.40203 39.2081 7.99828 39.2081 8.61984C39.2081 9.24141 39.4552 9.83766 39.8947 10.277L42.1697 12.5522H31.3437V4.6875ZM4.98437 51.2969C4.98437 39.143 14.0602 29.0702 25.7903 27.4964C27.1637 29.2752 27.9114 31.448 27.9114 33.7239C27.9114 39.3528 23.332 43.9323 17.7031 43.9323C13.6423 43.9323 10.3386 47.2359 10.3386 51.2969C10.3386 55.3577 13.6422 58.6616 17.7031 58.6616H23.9792C29.6081 58.6616 34.1875 63.2411 34.1875 68.8698C34.1875 71.1469 33.4317 73.3367 32.0481 75.12C31.0497 75.2469 30.0323 75.3125 29 75.3125C15.7577 75.3125 4.98437 64.5392 4.98437 51.2969Z" fill="white"/>
</svg>
