<svg width="393" height="480" viewBox="0 0 393 480" fill="none" xmlns="http://www.w3.org/2000/svg">
<g opacity="0.9" clip-path="url(#clip0_17_44)">
<path d="M266.677 377.362C267.425 377.308 268.16 377.308 268.87 377.375C268.122 377.227 267.387 377.174 266.677 377.362Z" fill="#D9DADB"/>
<path d="M202.761 288.933C199.576 293.88 196.725 299.029 194.636 304.608C197.448 299.459 200.143 294.028 202.761 288.933Z" fill="#D9DADB"/>
<path d="M322.081 192.21C320.108 196.135 318.393 200.249 316.871 204.389C319.45 199.052 322.185 193.742 324.854 188.392C323.19 188.809 322.855 190.677 322.081 192.21Z" fill="#D9DADB"/>
<path d="M260.822 21.8316C254.812 11.0368 247.191 5.21589 236.46 6.26445C221.849 7.70287 213.053 16.0107 211.892 27.9482C211.325 33.7556 207.598 36.7803 203.11 34.1186C191.129 27.0072 179.857 38.9178 169.372 29.4942C168.908 31.5106 169.191 33.1372 169.965 35.1268C142.857 40.531 140.045 63.7069 140.045 63.7069C140.045 63.7069 148.222 53.5439 156.579 52.8583C139.026 68.3851 140.729 86.614 142.753 97.2475C144.185 95.8897 148.853 83.7103 181.005 82.2584C180.515 82.2853 177.626 85.552 177.265 85.9149C178.297 85.7805 180.966 85.2159 181.792 85.0277C183.352 84.6782 184.913 84.2614 186.434 83.7506C197.332 80.1209 206.089 70.2537 209.519 58.9884C210.861 54.6328 211.518 50.0352 211.467 45.4646L213.285 44.0665C213.285 44.0665 213.272 48.2339 215.826 54.7807C217.309 58.5716 223.28 66.8526 223.28 66.8526C223.164 70.899 222.132 74.7034 219.605 77.9969C216.38 82.1912 211.609 84.4765 207.03 86.7215C207.03 86.7215 201.82 89.1009 195.32 91.9778C189.581 94.5185 180.837 99.0757 176.04 102.598C170.494 106.658 164.678 112.021 161.66 117.547C159.88 120.813 157.933 123.946 161.273 127.105C170.094 135.48 181.572 147.458 192.999 151.853C192.934 152.754 192.87 183.982 185.661 193.285C184.074 195.328 179.38 197.184 176.968 198.393C173.589 200.087 171.01 202.279 168.701 204.913C165.232 208.879 163.272 214.055 162.06 219.284C160.873 224.446 161.905 230.16 160.254 235.12C159.532 237.244 158.603 239.328 157.675 241.358C156.05 244.907 154.206 248.362 152.503 251.87C148.286 260.541 145.075 269.615 142.56 278.972C139.155 291.675 132.127 293.92 121.5 288.288C119.514 286.916 109.299 280.692 109.054 280.558C91.0893 270.543 60.6145 271.054 59.1959 267.572C56.1136 257.342 49.7039 254.424 40.6118 259.479C35.3371 262.41 33.3252 266.631 25.613 271.484C21.5892 274.011 11.8265 273.352 2.65693 286.244C-2.21801 293.114 0.941675 295.856 2.55376 297.348C4.84936 299.472 9.55664 298.706 14.625 296.044C19.8869 293.262 28.8629 291.595 34.7696 291.339C37.6972 291.205 39.7606 291.595 40.7408 290.963C45.2675 288.032 57.7128 289.82 69.9259 297.967C88.9227 310.644 110.473 319.328 131.211 328.429C141.683 333.026 147.744 331.091 154.812 322.406C169.011 304.984 186.976 295.614 197.345 275.073C200.737 268.351 200.724 269.521 204.232 276.377C204.335 276.579 204.438 276.78 204.541 276.982C205.392 275.745 206.295 274.535 207.25 273.393C214.033 265.031 221.513 255.285 223.641 244.396C225.666 236.774 224.75 228.99 226.865 221.206C228.955 212.105 235.003 204.819 241.993 199.267C244.444 197.318 247.01 195.584 249.563 194.051C252.31 192.021 254.722 189.535 255.599 186.617C257.121 182.06 255.07 177.167 251.756 172.69C250.724 171.292 249.563 169.948 248.364 168.657C223.77 140.978 212.228 111.753 251.021 94.4782C249.383 88.1196 248.416 83.1188 249.009 80.1882C250.389 81.1426 254.013 81.6938 254.967 81.6266C260.848 81.2098 262.834 76.209 264.536 71.477C270.456 54.9689 270.018 38.3128 260.848 21.845L260.822 21.8316Z" fill="#D9DADB"/>
<path d="M288.215 458.41C283.172 459.701 279.045 457.066 275.744 452.845C276.156 453.423 276.595 454.001 277.046 454.552C279.948 458.437 287.325 461.852 290.562 457.052C290.704 456.636 290.794 456.206 290.884 455.775C290.407 457.106 289.556 458.061 288.202 458.41H288.215Z" fill="#D9DADB"/>
<path d="M291.426 457.51C287.699 463.048 279.767 459.163 276.389 455.184C269.025 446.271 265.504 434.737 263.157 423.432C262.125 415.917 261.841 408.321 257.172 402.205C255.174 399.234 252.104 396.236 251.55 391.706C251.047 383.828 257.031 377.604 263.788 376.045C263.814 374.808 263.84 373.558 263.879 372.294C264.266 359.617 264.459 352.533 264.085 337.436C264.008 334.142 264.382 320.874 263.75 315.86C263.002 308.923 262.963 305.898 262.396 302.134C252.13 315.779 238.898 327.017 225.202 336.979C225.318 350.167 228.052 359.765 232.579 373.316C236.654 385.495 243.412 400.605 244.792 413.497C245.424 419.493 246.649 425.461 246.442 431.511C246.339 434.576 245.862 437.614 244.856 440.504C243.786 443.556 241.916 445.787 240.51 448.61C238.795 452.038 239.117 455.117 240.845 458.451C241.103 458.948 242.561 460.535 242.909 460.965C244.701 463.169 253.432 463.801 259.313 464.137C266.755 464.554 273.616 464.608 280.657 467.243C285.764 469.152 291.568 469.286 296.83 468.036C299.538 467.391 302.182 466.342 304.516 464.769C306.309 463.559 309.172 461.691 309.894 458.263C310.242 456.623 309.327 454.902 308.269 453.813C306.27 451.729 302.711 451.313 300.093 450.587C297.423 449.834 294.715 448.799 292.032 447.589C292.574 450.936 292.703 454.31 291.439 457.496L291.426 457.51Z" fill="#D9DADB"/>
<path d="M261.957 299.58C261.879 299.217 261.802 298.841 261.725 298.438C259.777 301.059 257.83 303.667 255.857 306.248C251.872 311.464 239.542 322.917 225.214 334.478C225.214 334.815 225.201 335.178 225.188 335.514C238.201 324.342 251.046 312.875 261.957 299.58Z" fill="#D9DADB"/>
<path d="M115.618 432.613C115.606 432.694 115.58 432.761 115.567 432.815C115.077 434.562 116.302 431.336 115.618 432.613Z" fill="#D9DADB"/>
<path d="M387.481 117.627C386.075 117.399 384.721 118.245 383.547 119.079C380.71 121.095 377.976 123.273 375.345 125.599C374.919 125.975 374.158 126.311 373.9 125.787C373.771 125.532 373.875 125.236 373.978 124.98C374.842 122.762 379.162 116.794 376.686 114.535C376.119 114.024 375.254 114.024 374.558 114.347C373.875 114.67 373.333 115.248 372.817 115.812C368.767 120.235 363.789 125.72 363.789 132.253C363.867 134.673 363.854 136.205 364.279 138.531C364.782 141.327 363.725 143.29 361.352 145.32C354.327 149.505 348.739 152.956 344.586 155.671C343.18 156.585 341.246 158.024 339.879 158.427C337.132 168.953 332.399 178.981 326.931 188.445C329.175 188.607 333.392 187.625 335.958 186.55C352.157 179.721 370.625 158.535 371.347 157.956C374.893 155.107 376.802 153.991 380.968 152.109C384.514 150.509 387.377 147.968 389.892 144.984C391.775 142.752 392.549 140.077 392.807 137.147C393.219 132.616 393.452 118.622 387.468 117.627H387.481Z" fill="#D9DADB"/>
<path d="M377.034 273.796C366.91 260.702 354.439 249.854 340.034 242.178C332.231 238.024 323.681 234.703 317.206 228.358C310.139 221.448 313.866 212.603 316.858 204.416C316.858 204.416 316.858 204.402 316.858 204.389C318.367 200.249 320.095 196.148 322.068 192.21C322.842 190.677 323.178 188.808 324.841 188.392C329.819 178.43 334.617 168.348 337.944 157.768C336.925 156.303 338.447 153.614 338.886 151.8C343.18 134.283 340.408 117.654 333.263 101.563C330.838 96.0912 329.948 89.3562 332.541 83.7639C333.817 80.9812 335.907 78.7496 338.473 77.2171C341.929 75.1737 345.773 75.5636 349.229 73.8025C352.195 72.2969 355.638 68.8958 356.412 65.5619C359.959 50.1158 358.759 40.9072 356.361 28.7412C353.807 15.7686 342.252 2.68843 327.369 0.456871C313.879 -1.57304 300.944 2.60777 295.991 21.0383C293.954 28.5933 295.295 38.8773 299.074 46.1635C305.032 57.6708 305.174 65.5081 297.294 70.7375C294.689 72.4582 291.529 74.0311 288.008 76.0744C283.804 78.8975 279.883 82.1238 275.86 85.4174C266.613 89.8267 258.54 93.7656 251.833 97.6103C224.505 113.272 219.862 127.333 252.104 165.095C255.032 168.187 258.114 172.072 259.894 176.387C261.428 180.124 261.996 184.184 260.642 188.365C257.998 197.062 249.383 200.168 243.631 205.236C242.457 206.163 241.374 207.145 240.368 208.18C233.817 214.902 230.592 223.908 230.399 233.695C229.896 253.403 217.889 267.357 207.288 282.305C205.741 284.483 204.219 286.701 202.774 288.946C200.169 294.041 197.461 299.472 194.649 304.621C194.469 305.118 194.275 305.602 194.108 306.1C190.729 312.929 187.531 320.78 180.592 325.444C173.796 328.321 166.857 330.943 160.602 334.532C154.709 338.256 148.518 343.418 144.378 350.22C142.057 354.051 138.742 361.203 135.995 366.123C131.353 374.458 126.194 382.725 119.049 388.95C115.799 391.786 109.196 397.446 105.43 399.476C101.935 401.358 94.3521 403.898 90.4703 404.584C83.6479 405.78 78.0895 411.292 79.3017 418.457C81.1847 429.602 84.757 436.31 85.6082 447.602C86.6141 461.045 92.379 470.778 102.645 478.239C104.837 479.839 108.745 480.806 111.389 479.153C112.936 478.185 112.794 476.895 112.085 475.349C105.289 460.534 108.732 446.419 115.477 432.922C115.541 432.801 115.593 432.707 115.632 432.626C115.825 431.887 116.251 430.005 116.276 429.508C117.295 425.246 121.706 415.056 139.632 401.035C153.109 390.563 167.192 381.059 179.457 369.067C180.541 368.005 187.853 361.203 198.686 354.078C207.327 348.392 216.625 341.428 225.215 334.505C239.543 322.944 251.872 311.49 255.857 306.274C257.83 303.68 259.778 301.072 261.725 298.464C265.542 293.329 269.321 288.14 273.087 282.964C275.963 279.025 279.161 277.963 283.765 279.953C302.388 287.978 320.818 296.461 340.691 304.15C326.028 309.555 315.104 329.988 308.45 341.509C298.055 359.469 292.69 368.543 274.273 378.155C273.255 378.693 272.507 378.464 271.681 378.141C270.753 377.94 269.798 377.604 268.87 377.415C268.16 377.335 267.438 377.335 266.677 377.402C266.664 377.402 266.639 377.402 266.626 377.402C265.646 377.483 264.691 377.684 263.763 377.98C263.556 396.048 265.065 411.884 267.4 429.991C267.799 433.083 269.747 435.745 272.416 437.157C277.601 439.899 283.843 443.757 290.317 446.822C289.801 444.725 289.156 442.641 288.64 440.652C284.333 429.44 291.852 417.395 292.135 406.506C294.212 401.922 296.933 396.612 300.028 392.7C308.127 380.279 317.929 372.576 332.915 363.125C341.362 357.802 349.332 351.927 356.954 345.38C368.754 335.258 383.65 325.807 390.769 311.195C395.283 301.946 390.498 292.146 384.656 283.811C382.077 280.128 379.304 276.74 377.021 273.796H377.034ZM291.4 152.794C291.4 152.794 291.323 152.821 291.284 152.821C291.117 152.391 291.142 152.351 291.4 152.794Z" fill="#D9DADB"/>
<path d="M253.961 391.41C254.322 394.744 256.953 397.5 259.197 400.645C266.381 410.271 263.788 423.445 267.644 434.186C269.514 440.746 271.81 447.387 275.744 452.845C279.045 457.066 283.172 459.701 288.215 458.41C289.569 458.061 290.42 457.106 290.897 455.776C291.49 452.858 291.039 449.807 290.304 446.809C283.83 443.731 277.588 439.886 272.403 437.143C269.734 435.732 267.786 433.07 267.386 429.978C265.052 411.87 263.543 396.048 263.75 377.967C258.049 379.809 253.484 385.522 253.961 391.423V391.41Z" fill="#D9DADB"/>
<path d="M291.283 152.82C291.283 152.82 291.36 152.793 291.399 152.793C291.142 152.365 291.116 152.391 291.283 152.82Z" fill="#D9DADB"/>
<path d="M194.095 306.1C194.263 305.602 194.456 305.105 194.637 304.621C189.284 314.448 183.533 323.253 177.316 326.668C177.316 326.668 169.256 329.061 160.589 334.545C166.844 330.956 173.783 328.335 180.579 325.458C187.518 320.793 190.716 312.942 194.095 306.113V306.1Z" fill="#D9DADB"/>
<path d="M215.542 343.781C218.766 341.576 222.003 339.304 225.202 336.978C225.202 336.495 225.189 336.011 225.202 335.513C221.99 338.282 218.753 341.025 215.555 343.781H215.542Z" fill="#D9DADB"/>
<path d="M268.857 377.375C269.798 377.563 270.753 377.899 271.668 378.101C271.527 378.047 271.385 377.993 271.23 377.926C270.495 377.644 269.695 377.456 268.857 377.375Z" fill="#D9DADB"/>
<path d="M263.75 377.953C264.678 377.657 265.645 377.442 266.613 377.375C266.625 377.375 266.651 377.375 266.664 377.375C265.71 377.456 264.73 377.63 263.75 377.926C263.75 377.94 263.75 377.953 263.75 377.98V377.953Z" fill="#D9DADB"/>
<path d="M290.897 455.776C291.697 453.584 291.49 450.358 290.936 447.105C290.729 447.011 290.523 446.903 290.304 446.809C291.039 449.807 291.49 452.859 290.897 455.776Z" fill="#D9DADB"/>
<path d="M324.854 188.392C322.185 193.742 319.463 199.052 316.871 204.389C316.871 204.389 316.871 204.389 316.871 204.402C320.315 199.294 323.758 193.971 326.943 188.459C326.763 188.459 326.595 188.432 326.44 188.405C325.808 188.284 325.293 188.298 324.867 188.405L324.854 188.392Z" fill="#D9DADB"/>
</g>
<defs>
<clipPath id="clip0_17_44">
<rect width="393" height="480" fill="white"/>
</clipPath>
</defs>
</svg>
